<svg xmlns="http://www.w3.org/2000/svg" fill="none" stroke-width="4" stroke="white" stroke-dasharray="5839" viewBox="0 0 1004 684">
	<path d="M8.1,675h196c0,0,4.3-76.7,5.3-96.8c1-20.2,2-52.2,2-52.2s-11.2,10.2-33.5,10.2s-24.7-7.2-24.7-7.2
	s13.3-3.7,39.5-6.8s42.8-5.3,48.3-10.8c5.5-5.5,11.5-16.4,17.8-22.7c6.3-6.3,23.3-14.9,25.6-17.2c2.3-2.3-23.5,2.2-34.6,3.3
	s-163,21.5-164.3,21.5c-1.4,0-3.3,2.7,2,5.1c5.3,2.3,23.5,3.7,30.9,5.3s22.3,12.1,22.3,12.1s-15.3-9.6-15.3-20.5
	c0-11,17.4-34,26.8-35.8c9.4-1.8,14.3-0.4,22.7-4.9s15.8-5.7,23.3-2.3s15.5,11.2,19.8,12.7c4.3,1.6,8.9,4.5,8.9,6.2
	s-3.7,6.1-7.5-0.7s-2.3-16.1-2.3-20.1c0-4-2.2-11.5-11-16.8c-8.9-5.3-2.7-10.7,3.7-10.7c6.4,0,8.3,2.5,8.3-6.4s-8-31.7-8-41.7
	c0-10,1.4-18.8,8.3-18.8s10.7,18.9,6.9,34s-12,36-13.7,43.2s-0.7,21.1-0.7,21.1s-3.4,9.3-19.6,9.3s-17.5,0.1-21.5,2.1
	c-4,2-12.1,7.7-15.9,7.7c-8.3,0-14.6-8.6-18.4-8.6s-4.7,1-4.7,1s-18.3-25-18.3-40.2s13.4-21.8,15.1-29.1c1.7-7.3-1-23.9,2.3-30.1
	c3.4-6.3,10.5-21.5,16.3-33.1c5.8-11.6,10.1-33.3,17.2-37c7.2-3.8,11.5-4,13.8-6.3c2.3-2.3,8.7-16.6,20.2-22.8
	c11.5-6.3,24.1-11.7,42.9-17.5s30.1-9.5,36.7-17.9c6.5-8.3,10.5-19.8,12.4-21.7c1.9-1.9,2.7-2.7,2.7-2.7s5.2,17.9,14.5,23.7
	c9.4,5.7,21.9,16,23.6,20c1.7,3.9,6.3,12.3,1.7,26.3c-4-4-16.4-12.3-24.8-18.3c-8.3-6-19.7-17-19.7-26.7s6.8-19.2,6.8-31.4
	c0-12.3-9.5-35-9.5-35s-5.4,1.9-9.3-2c-3.8-3.8-7.2-9-7.2-18.1c0-9.1,3.5-11.6,5.9-11.6c2.3,0,5.9,2.5,5.9,2.5s-6.8-39.4,47.2-39.4
	s60.7,34.2,60.7,34.2s12.1-6.5,12.1,15.5s-11.1,23.5-16.7,21.9c-0.8,4.7-17.3,52.4-46,52.4s-36-26.1-38.9-31.6s-8-15.5-19.3-17.3
	c-11.3-1.8-24-11.3-28.4-22.3c-4.4-11-3-28.6-3.8-33.3c-2.1-12.1-16.2-17.6-16.2-31.7s6.9-22.7,11.1-29.3c4.2-6.7,6.4-21.4,20-30.8
	c13.6-9.4,24.8-19,51.4-19c26.6,0,33.1,10.6,43.4,13s29.3,7.6,38.5,12.8C404.4,40,418.4,52,428.1,66c9.8,14,11.3,35.9,13.2,52.2
	s5,46.2-3.4,57.4c-8.3,11.2-18.1,18-31.6,18s-27.8-3.5-27.8-3.5s9.2-8.6,10.2-13.3s1-14.5-0.4-26.1c-1.4-11.6,1.2-28.8,1.7-34.8
	s1.7-23.2-3.3-42c-3.4-3.4-28.4-23.2-60.1-23.2s-55.6,19.7-55.6,31.7s4,19.2,4,32.5s0.5,13.8,0.5,13.8s11,3.3,17.8,20.3
	c6.8,17,11.3,43.8,8.3,58.2s-17.1,26.9-11.5,46.4c5.6,19.6,39.9,37,51.3,37c11.3,0,8.3-1.7,7.8-4.4c-0.5-2.7-3.8-20.7,9.7-32.7
	c13.4-12,14.5-17.1,15-24.8c0.5-7.7-2.5-19-1.7-18.1c0.8,0.8,6.1,11.3,8.2,24.5c2.1,13.2-1,28.4-7.7,37.4c-6.7,9-11.2,10.5-9.7,9
	s20.3-38.6,22.7-41c2.3-2.3,5,1.8,7.5,2.8c2.5,1,31.4,15.3,45.7,25.5c14.3,10.2,30.5,25.4,35.2,34.8s0.8,23.9,2,29
	c1.2,5.1,10.1,22.6,10.8,31.1c0.7,8.5-1.6,27.6,0,35.3c1.6,7.7,9.7,21.3,10.8,25.1c1.1,3.8,1.6,12.1,0,20.3
	c-1.6,8.2,0.5,14.6,3,20.2c2.5,5.6,15.2,21.9-2.3,21.9c-17.4,0-15.9-10.4-30.2-10c-19.4,0.6-31.2-1.9-41.2,6.6
	c-10,8.4-10.4,15.7-9.1,17s8.4,7.9,37.9,12.6c29.4,4.7,42.8,7.3,62.5,3.7c19.8-3.6,17.2-4.2,17.7-5.7c0.4-1.5-0.8-14.8-13.8-14.8
	s-25.7,1.5-31.9-0.1c-6.2-1.6-7.3-3-6.8-5.2c0.6-2.2,3.7-11.9,15.2-10.6c11.4,1.4,21.7,8.7,29,10.8s46.3,10.6,46.3,21.1
	c0,10.6-23.1,16.5-51.8,14.5c-28.7-2.1-77.2-7-85.7-7.8s-50.1-0.8-50.1-14.7c0-9.9,30.4-13.9,30.4-13.9s14.7,53.4,61.5,53.4
	s50.8-10.4,52.4-13.1s8.4-9.6,9-14.9s-1.7-17.6-13.7-22.3c-12-4.7-20.7-5.4-23.2-5.7c-2.5-0.3-8.4-2.6-10.8-14.6
	c-1.5-7.5-13.9-9.8-20.5-9.8c-13.8,0-19.4,13.5-28,13.5s-15.1-4.7-15.1-12.7c0-8,2.9-9.1,2.9-19s-2.4-9.5-2.4-20.5
	s4.5-13.2,4.5-33.1c0-19.9,1.3-35.3,6.7-44.3s9.2-9.2,10.5-8c1.2,1.2,3.6,10.3-1.5,20.3c-5.1,10-14.2,16.8-20.3,38.1
	c-6.1,21.2-3.7,38.6-3.7,49.6c0,0,6.8,88.2,6.8,104.9s6.7,97.6,6.7,123.5h557.2"/>
</svg>
