<svg xmlns="http://www.w3.org/2000/svg" fill="none" stroke="white" stroke-width="4" stroke-dasharray="14354" viewBox="0 0 901 663.5">
	<path d="M365.7,337.3c0,0-4.8-1-8.9-5.1c-4.1-4.1-18.8-19.3-21.9-25.6s1-9.8,7.2-13.4c6.1-3.7,11.1-16.7,14-22.6
	s6.8-14.3,22.2-14.3s20.1,7.6,24.4,11.9c4.3,4.3,14,13.4,25.4,19.4s18.5,15.3,22,21.5c3.5,6.3,6.3,16,14.6,20.5
	c8.3,4.4,20.2,11.3,26.9,18.1c3.6,3.6,17.5,17.5,2.9,21.8c-14.6,4.3-27.4-2.3-36.1-6.5s-18.5-14.6-29.7-20.5
	c-11.2-5.9-18.1-4.7-35.9-6.4c-17.7-1.7-22.6-7.6-29.7-13c-7.2-5.5-15.7-17-18.3-19.6c-2.5-2.5-6.8-2.3-17.1-5s-21.7-14.2-27.5-21.9
	S285.8,254.5,289,246c3.3-8.5,18.3-17.1,30.3-24.4s27.5-8.7,36.3-9.9c10.4-1.5,24.1,1.8,24.1-0.5s-9.1-5.5-14.7-6.4
	c-5.6-0.9-16.4-3.7-38.2,10.6c-21.8,14.2-35,14.3-35,14.3c-7.6,0.2-14-2.1-18.4-4.6c-9.8-5.5-11.6-20.1-16.6-29.6
	c-5-9.5-12.5-16.7-20.3-20.9c-7.8-4.2-26.1-12.8-31.6-15c-5.5-2.2-12.5-8.5-12.5-7.3s0,10.3,1.8,16.3c1.8,6,10.6,13.4,16.4,17.7
	s12.1,10.7,18.4,10.7c9.8,0,17.3-5.6,17.3-3.8c0,5.7-12,8.6-13.3,8.6s0-2-0.8-6c-0.8-4-4.8-7.3-6.3-7.3s-0.7,3,2,3
	c2.6,0,9.5-1.6,13.4-3s4.3-3.1,3-3.1c-5-0.9-27.9,3.7-27.9,3.7s1.6,9.9,1.6,18s4.6,12,6.9,13.6s5.3,0.7,7.1-0.3
	c1.8-1,6.5-2.7,8.9-3.3c2.4-0.5,3.7-1.1,4.2-2.9c0.5-1.8-0.9-6.7-5.3-6.7s-3.6,7.7-3.9,11.8c-0.3,4.1,1.4,4.3,5.6,5.4
	c4.2,1.1,8.6,0.8,11.3,2.6c1.8,1.2,0.1,8.1,2.8,7.5c2.6-0.5,5.4-0.2,5.4-0.2c2.4,0.3,6.2,1.4,8.5,2.6c2.3,1.3,3.7,4.5,14.5,4.5
	s33.2-20.8,37.7-26.2c4.4-5.4,11.8-11.8,11.8-11.8c15.7-13.4,27.1-16.1,33.1-19.3c7.2-3.9,20.9-10,29.6-29.3s11.9-29.4,7.4-33.9
	s-15.4-4-22.4-5.9c-7-1.8-12.5-9.1-13.1-11.7c-1.6,3.1-0.7,6.2-3.7,13.6c-3.1,7.4-9.1,20.2-16.2,23.7c-7.1,3.5-11.1,2.1-12.3,0.8
	c-1.2-1.2-9.9-7.4-18.7-7.4s-15.2,5.5-15.2,13.5s4.4,12.5,6.3,15.8c1.9,3.3,3.8,5.3,5.2,3.9c1.4-1.4-0.4-5.8-1.9-7.2
	c-1.4-1.4-5.3-4-4.5-9.8c0.8-5.8,5.6-6.9,9.6-6.9s11.1,1.8,12.4,8.4s0.7,10.7-1.1,14.5s-7.9,5.1-10.8,8c-2.9,2.9-3.5,8.3,3.4,8.3
	s9.4-2.1,9.4-6.8c0-4.7,0.2-8.9,3.1-14.1s2.1-13.3-0.2-17.3c-2.3-4-7.2-8.2-14-8.2s-15.5,0.9-18.6,19.2s-11.9,23.7-14,23.7
	s-22.9-1.8-28.8-9.6c-5.9-7.8-11.6-18.1-17.6-22.5s-13.3-6.5-21.1-6.5s-12.8,2.3-16.3,0.9c-3.5-1.5-8.8-6.4-9.7-9.5
	c2.4,2.4,14.4,6.5,29,7.9c1.9,1.5,3.6,3.5-2,5.3c-5.6,1.8-23.4,4.9-33.8,2.1c-10.5-2.8-25.3-20.9-26.8-26
	c-2.3-8.1-0.5-21.7,6.3-30.8s11.6-19,14.5-24c2.9-5,7-11.2,8.9-11.2s2.7,0.8,4,2.2c1.3,1.3,2.8,2.2,2.8-0.5s-2.5-3.9-5-3.3
	c-2.5,0.7-4.8,1.6-3.7-1.7c1.2-3.3,5.9-8.6,7.6-9.7c1.2-0.7,3-0.9,3.5,1.3c0.5,2.2,0.1,5.2,1.6,6.7c1.4,1.4,3.3,0.7,3.3-1.2
	c0-1.8-2.3-4.5-3-7c-0.8-2.6-0.9-7.1,4.5-11.8c5.4-4.7,19.2-11.6,21.6-11.9c1.9-0.2,3.3,0,3.3,1.8c0,1.8-0.8,4.9-0.2,6.1
	c0.6,1.2,1.4-3.8,4.4-6.8s12.1-9.8,32.9-9.8s42.9,15,54,23.2c11.1,8.2,25,26.3,32.3,41.3s15.3,30.8,18.1,31.3
	c2.9,0.5,21.9-9.8,30.7-15.4s45.1-34.2,93.8-25.6c48.7,8.6,67.7,58.1,72.6,67.9s31.3,73.6,38.5,94.3c7.2,20.7,18.6,43.4,31.5,59.1
	c12.9,15.7,44,47.7,54.4,62.2s19.6,32.1,23.1,47.9c3.5,15.8,7.3,27.3,20,39.9s8.2,24.7,3.1,31.3c-5.1,6.7-29.7,28.2-65,42.8
	c-35.2,14.7-60.7,19-75.5,12.5c-14.9-6.5-14.1-29-16-34.6c-2-5.7-11.8-23-17-24.5c-5.2-1.5-5.3,3.1-0.6,3.1s43.1-6.2,79-14.7
	c19.8-4.7,46-12.4,80.4-24.2c46.8-16,98.5-35.7,118.2-35.7c0,0,46.4,0.8,46.4,38.2s-74.1,122.2-80.6,128.7
	c-6.6,6.6-22.7,26.4-52.6,26.4c-29.9,0-61,0-78.1,1.2c-17,1.2-20.7-0.6-14.7-4.9c6.1-4.3,62.2-37.2,82.4-47.7
	c20.2-10.6,57.3-30.5,71.2-40.7s15.8-13.1,14.9-14.1c-1-1-29.7,5.7-38.9,8c-9.2,2.3-51.1,15.3-65.3,21.1c-14.3,5.9-70,36-83.5,42.3
	c-13.5,6.3-46.2,16-75.1,19c-29,2.9-38.5,3.1-44,1.8c-5.5-1.4-8-1.8-1-16.2c7-14.5,19-32.9,30.1-73.6S574,386.2,574,374.1
	s-1-14.1-3.5-14.1c-2.5,0-16.6,9.6-16.6,27c0,7.2,13.8-0.7,17.2-4.1c3.4-3.4,6.3-11,2-31.9c-4.3-20.9-3.3-50.7-3.3-50.7
	s-3.7,44-32.5,44c-28.8,0-44-40.1-47-47.5c-2.9-7.4-16.4-54.4-5.3-54.4s33.5,33.7,37.8,40.9c4.3,7.2,16.2,23.9,26.4,23.9
	c10.2,0,18.8-8.6,21.3-38.9c2.5-30.3,1.8-66.9-1.6-81.2c0.8,19.6,4.7,66.3-23.1,66.3c-27.8,0-32.9-33.5-32.9-40.1s4.3-25,21.5-30.3
	c17.2-5.3,27.8-7.6,27.8-15.8s-10.3-56.4-29.2-74c-17.4-16.2-31.5-20.3-42.3-20.3s-60,9.4-63.6,65.2c-2,30.7,27.6,59.3,31.3,88.8
	c3.7,29.5,5.7,59.2,12.3,77.9c11.7,32.9,31.7,41.7,31.7,56.5s-7.6,43.8-13.9,61.2c-6.3,17.4-4.1,45-4.1,61.8
	c0,16.8,5.7,53.4,5.7,65.5s0.4,19-8,20.2c-8.4,1.2-20.3-1-20.3-4.7s6.3-11.7,9.8-22.3c3.5-10.6,9-29.7,10.4-44.2s4.4-35.3-2.9-42.7
	c-7.3-7.3-16.7-16.7-22.8-22.8s-14.8-8.1-22.6-8.1s-26.8,1.6-42.3-13.9c-15.5-15.5-21.7-31.3-21.7-41.8s5.7-15.5,20.3-15.5
	c14.7,0,23.3,3.7,33.5,3.7s11.2-5.3,11.2-8s-8.6-6.8-8.6,0c0,6.8,11.3,18.8,5.7,30.3c-5.7,11.5-15.1,13.5-22.5,13.5
	c-7.4,0-12.1,1.8-8.6,9c3.5,7.2,15.7,14.1,29.2,14.1s15.7-14.5,15.7-19.4c0-4.9-5-37.9-25.2-49.3c-24.8-14-56-6.8-66.5-11.7
	s-20.7-12.7-20.7-15.8s10.8,6.5,13.7,18.2c2.9,11.7,8.6,27.8,12.5,54.4c3.9,26.6,11.5,48.9,16.6,67.9c5.1,19,12.3,42.7,14.7,59.1
	c2.3,16.4,4.7,29.2,8,34.6c3.3,5.5,21.5,9.8,21.5,17.8s-2.9,24.1-20.5,38.7s-22.8,12.3-29.7,8.2c-6.9-4.2-16.7-8.7-22.4-8.7
	s0.8,6.1,2.2,8.7s5.3,6.8,6.4,13.6s5.5,7.8,10.2,6.8s18.5-7.6,24.9-14c6.4-6.4,13.4-16.2,14.7-32.5c1.3-16.3-4.2-30.1,11-30.1
	c15.1,0,44,6.3,76.8,8.6c32.9,2.3,63.1,2.7,74,5s33.8,9.5,47,12c13.2,2.5,25.2,2.8,30.5,3.6s14.6,3.9,20.1,5.1
	c5.5,1.2,16.1,1.9,17.7,3.6s0.7,3-0.7,3.3c-1.3,0.3-14.3-1.2-17.4-2.1c-3.1-0.8-19.6-4-20.3-4s31.4,6.4,42.7,7.4
	c11.3,1,17,1.9,18.7,3.5s1.1,2.9,0.5,3.5s-2.5,0.6-4.7,0.6c-2.2,0-7.4-0.8-10.4-1.3c-3.1-0.5-9.4-1.6-13.5-2.2s-14.6-2.8-19.6-3.8
	c-5-1-19.6-4-19.6-4s56.1,10.4,60.4,12.3c4.3,1.8,4.4,5,3.3,6.6s-7.6,2-13.1,1.6c-5.5-0.3-14.9-2.9-21.3-4.7
	c-6.3-1.8-20-6.8-23.2-7.8c-3.1-0.9-13.8-2-14.3-2c-0.5,0,7.6,0.5,12.5,2.2c4.9,1.7,27.5,8.7,30.7,9.6s6.3,2.7,5.5,5.3
	s-4.5,3-12.1,2.2c-7.6-0.8-22.8-2.7-30.4-4c-7.6-1.3-20.7-3.1-26.6-3.1c-5.9,0-31.4-0.5-35.5-0.5c-4.2,0-4.8-2.3-4.8-3.7
	c0-2,1.9-6,3.2-7.2s1.8,0.5,0.8,1.4c-0.9,0.9-4.6,5.5-11.9,8s-22.6,5.7-46,8.2c-23.3,2.5-67.4,8.1-81.1,9.5
	c-13.7,1.4-40.7,7.3-59.2,7.3s-22.9-5.9-26.7-12.5c-3.8-6.5-15.8-32.8-21.3-47.8s-15.9-42.4-18-48.7s-13.6-44.5-16.8-60
	s-10.7-45.5-15.4-56.3c-4.7-10.8-12.4-25.6-13.7-38.6c-1.3-13,0.4-29.5,5.6-42.8c5.2-13.3,17.2-25.8,33.9-25.8c5.2,0,1.7,2.3-2,4.2
	c-3.7,1.8-12.3,5.5-19.4,20.2c-7.2,14.7-10.6,24.5-12.8,26.6c-2.2,2.2-5.9,6.5-8.9,0.5s-5.7-18.7-3-27.4s13.7-21.1,17-21.7
	c3.3-0.5,2.9-0.2,1.6,1.2s-25.7,20.7-36,20.7s-30-6.1-39.5-20.6c-9.5-14.5-9.9-16.3-12.8-25.3s12.2-11.6,28.6-1.2
	s19.3,14.9,22.9,18.5s11.1,11.3,11.1,11.3s-12.7-13.2-13.4-24.5c-0.8-11.3,11.3-14.7,15.5-17.3c4.2-2.6,9.6-4.2,13.4-10.6
	c0,0,4.8-8.8-0.7-13.1c-4.1-3.3-8.8-4.4-9.6-7.2c-0.9-2.9-0.3-3.4,0.2-7.6c0.4-3.6-4.5-2-6.7-2.7s-2.3-8-2.3-8s0.1,6.2,1.4,7.4
	c1.3,1.3,4.1,0.5,6.3,1c2.2,0.5,1.2,2,0.8,7.4c-0.4,5.4,6.9,6.9,9.9,9.5c6.1,5.3,1.4,11.7-3.7,14.6c-7.2,4.2-19.6,6.2-26.6,8.2
	c-8.6,2.5-12.5,7.2-24.3,7.2c-16.6,0-32.7-16.9-42.5-33.5s-7-25.5-4.4-25.5c2.6,0,4.3,6.4,1.7,15.2c-2.6,8.8-9.7,15.8-9.7,27.7
	s4.7,21.4,7,28.3s9.8,25,9.8,44c0,18.9-2.1,35.6-3.9,49.6c-1.8,14-5.7,46.2-6.1,56.6c-0.5,10.4-1.6,26.9-1.6,37
	c0,10.2,0.9,27.4,2.9,42.9c2,15.5,7.7,36.8,10.4,50.5c2.6,13.7,6.5,22.7,8.8,26.5c2.3,3.8,7.1,7.1,5.5,8.7
	c-11.5,2.5-27.6-10-34.4-25c-6.8-15.1-9.8-33.9-9.8-55c0-21.1,4.3-47.2,11.9-66.9c7.6-19.8,10.1-59.2,10.1-59.2s1.6,3,6.7,13
	c5.1,10,18.7,25.4,28.3,33.3s43.7,26.5,55.3,31.7c11.6,5.2,34.6,15.3,40.2,19c5.6,3.8,10.3,21.4,10.3,27s-15.3,1-36.4-0.5
	c-21.1-1.6-45.3-6-55.7-6s-25.6,18-18,18s10.4-14,12.3-23.7c1.8-9.8,2.1-30,2.1-45.4s-7.7-22.3-15.1-25.2c-7.4-2.9-8.9,1.8-8.9,11.5
	c0,9.7-1.6,27.4-2.2,35.9c-0.7,8.5-4.6,27.4-4.6,47.3c0,20,17.1,29.1,26.1,29.1s32.5-2.2,44.7-4c12.3-1.8,41.1-6.8,41.1-6.1
	s-36.8,9.7-47.3,11.6s-57,12.5-74.5,6.8s-25.8-22.3-30.2-35.8s-7.3-30.1-7.3-50.5c0-20.3,3.2-39.9,7.5-55.1
	c4.3-15.2,11.3-40.4,12.3-58.2c1.1-17.8-1.2-44.6-3.2-61.3c-2.1-16.7-4.6-47.3-4.6-55.3s0.9-28.5,7.9-44.5c7-16,6.1-20.9,5.3-25.9
	c-0.8-5-5.6-15.8-5.6-21.8c0-5.9,3.6-9.7,4.8-10c1.3-0.3,4,1.4,4,4.3c0,2.9-6.1-1.2-9-2.6c-2.9-1.5-11.9-6.4-17.8-7.4
	c-5.9-1-19.2-1.8-47,17.4s-33.7,51.5-36.8,68.7s-3.9,55.6-3.9,73c0,17.4-8.6,67.3-12.5,88.6s-6.1,50.3-4.7,72.6
	c1,17,11.2,51.7,15.7,68.7s8,34.8,8,59.9s-15.8,45.6-20,49.7c-4.1,4.1-3.9,1.6-3.9-1.4c0-2.9,9.4-24.8,9.4-41.9
	c0-17-10.2-53.8-15.5-70.8s-10.6-43.6-10.6-82.2S24,369,28.1,352.1c4.1-16.8,13.1-73,17.6-107s17.7-51.1,29.4-61.1
	s21.8-12.5,21.8-12.5s-3.9,1.3-11.7,9.1c-7.8,7.8-11.2,22.4-13.4,38.6s-0.9,40.3,0,56.5c0.9,16.2,0,42.8-2.3,57.5
	c-2.3,14.7-7.3,36.3-11,62c-3.7,25.7-3.4,47.1-2,67.7c1.4,20.6,7.6,50.9,10.8,66.4c3.3,15.5,7.7,41.2,7.7,41.2
	c4.3,23.7,5,36.3,2.1,46.7c-2.7,9.9-9.8,14.7-1.9,14.7s18.2-11.1,19.8-24.1c1.6-13-1.6-28.3-5.5-42.3c-3.9-14-8.9-32.9-11.5-52.2
	c-2.6-19.3-3.4-54.5-2.5-68.7c0.9-14.2,3.8-37.7,7-58.4c3.3-20.7,4-47.5,4-57.1c0-9.7-1.2-34.7-2.9-66.7c-1.7-32,1.4-46,5.5-64.6
	c4-18.5,19.7-33.5,24.9-36.9c5.2-3.4,13.7-6.6,15.2-5.1c1.5,1.5,0,3.5-3.5,7c-3.5,3.5-17.2,17.2-22.2,34.2
	c-5.1,17.1-4.2,41-3.1,58.2c1,17.2,3.3,51.3,3.9,65s0.1,47-2.7,65.1c-2.9,18.1-11.2,71.3-11.2,92.1s2.3,42.3,5.6,60
	c3.3,17.7,8.6,30.3,13.6,38.9s18.4,22.8,21.9,28.7c3.5,5.9,5.7,19.4,10.2,19.4s0.7-17.3-2.1-24.7c-2.7-7.3-16-42.3-24-63.5
	s-9.8-53-9.8-73.6c0-20.5,11.5-67.3,17-102.7c5.5-35.4,2.9-85.1,2.9-97.6c0-12.5-1.8-38,1.2-61.6c2.9-23.7,13.7-33,17.2-36.5
	c3.5-3.5,8.3-3.5,11.4-2.1s22.4,12,25.2,13.4c2.8,1.4,15.3,6.8,16.5,9c1.3,2.1-1.8,2.4-4.8,3.5c-3,1.2-6.2,4.9-8.4,8
	c0-8.3,5.8-10.7,7.4-11.3s6.3,0,9.3,5.5c3,5.5,10.3,9.5,12.3,10.4c2.1,0.9,4.5,1.3,0.5,4c-4,2.7-10.1,2.8-14,2.8
	c3.2,3.2,10.5,2.3,12.1,1.6s0-2.4-1.4-3.8s-1.7-2.4-2.8-3.5s-3.8-6-7.9-4.6c-4.1,1.4-3.7,11.3-3.7,11.3"/>
</svg>
