<svg  xmlns="http://www.w3.org/2000/svg" fill="none" stroke="white" stroke-width="4" stroke-dasharray="8998" viewBox="0 0 916 572.2">
	<path d="M14.6,557.3h118.3c0,0,2.1-14.6,8-24.8c6-10.2,18.5-30.4,21.2-37.4c2.7-6.9,9.1-25.9,14.3-40.2
	c5.2-14.3,11.1-27.5,17.7-43.7c6.7-16.2,11.7-29.2,17.1-39.1c5.3-9.9,10-17.5,19.6-30c9.5-12.5,18.1-23.5,22.7-29.7
	s12.3-15.1,23.3-15.1c11.1,0,20.7,1.7,33.1,6.5s27.7,14.5,34.2,18.9c6.5,4.4,19.8,15,27.1,20.5c7.3,5.5,31,20.3,34.4,23.7
	c3.5,3.5,11.3,8.5,10.3,18c-1,9.5-9.7,18.3-13.7,26c-4,7.7-14.9,27.4-23.1,38.5s-20.9,26.7-29.5,35.2c-8.5,8.5-11.1,14-24.3,25.8
	c-13.2,11.9-27.6,20.4-31.2,24c-3.6,3.6-15.1,17.4-19.8,21c-4.8,3.6-0.8-14,1.2-18.1c2-4.2,10.3-18.3,22.6-28.6
	c12.3-10.3,30.8-24.1,36.5-27.8c5.7-3.7,18.4-14.2,22.3-20.1c3.9-5.9,14.7-24.5,20-29.7c5.2-5.2,20.1-18.8,23.7-26
	c3.7-7.2,0.3-13.7-7.1-17.9c-7.4-4.2-16.6-8.7-20.3-15.6c-3.7-6.9-2.6-12.4-2-16.2c0.7-3.8,4-10.6-5.6-15.1s-20.3-8.9-23.9-10.8
	s-5-4.2-5.7-4.2c-0.8,0-10,2-20.2,17.7c-10.2,15.8-10.4,29.1-13,36.1c-2.6,7-8.3,18.3-13.2,24.5c-4.8,6.3-10.3,15.3-16.3,26.3
	c-16.4,30.1-63,70-76.5,96.1c-8.1,15.6-17.3,31.8-21.2,31.8s1.4-16.2,4.7-21.7c3.3-5.5,11.3-17.8,30.5-35
	c19.2-17.2,44.2-40.7,57.7-55.3c13.4-14.6,26.2-27.3,26.2-38.6s-2.3-25.2,0-36.4c2.3-11.2,7.3-21.3,14.1-28
	c6.8-6.8,10.2-9.7,10.2-15.5s-4.3-9.4-11-11.6c-6.7-2.2-23.3-4.8-28.3-7.7c-5-2.9-11.6-10.6-5-20.9c6.7-10.3,18.3-21,27-27.5
	c8.7-6.5,21-13,26.7-27.9s6.3-24.7,6.3-39.3c0-14.6-3.1-32.2,0-41.7c3.1-9.5,7.4-15.5,12.5-18.8c5-3.3,23.5-13.4,23.5-19.4
	s-5.5-3.5-9,0c-3.5,3.5-8.9,14.5-14.3,27.1s-13.7,17.3-17.7,15.9s-4-7.4-3.1-16.8c0.9-9.4-0.1-25-1.4-36.4s-4-32.3-3.5-50.2
	c0.5-17.9,2.6-41.3,16.3-41.3c8,0,11.5,3.8,19.6,9.1c8.1,5.3,12.5,8.1,23,13.4s21.8,13,27.5,18.8s7.2,8.7,5.2,10.7
	c-2,2-11.7,5.3-15.3,8.9c-3.6,3.6-6.1,5.9-8.2,19.2s-4.9,19-8,22s-8.2,5.7-6.5,9.8c1.7,4,8.2,3.3,11.1,3.3s5.8,2.9,8.3,5.4
	c2.5,2.5,8.7,5.2,16.5,1.2c7.8-3.9,14.7-12.1,20.9-24.4s6.1-21.5,4.7-29s1.6-17.3,7.6-17.3s6,4.3,14.6,4.3s17.7-11,22.7-13.8
	c5-2.9,14.1-9,25.2-3.7s14.7,18.2,14.1,30.5c-0.5,8.5-3.3,14.8-8.2,30.4s-18.7,25.8-22,26.9s-13.1,1.1-18.1,4.7s-4.5,12.6-4.5,17.2
	s-4.5,9.7-17.4,9.7c-12.9,0-23-6.1-31.3-12.3c-8.3-6.3-19.3-21.6-21.9-31.4c-2.6-9.8,1.2-20.1,0.8-29.7c-0.4-9.7-9-13.5-12.1-14.9
	c-3.1-1.4-15.8-4.4-22.5-9c-6.7-4.6-11-12.2-12.2-18.5c-1.2-6.4,0.7-8.5,1.5-8.8s2.3,0.5,3.6,4.1c1.7,4.7,0,17.6,1,25
	c1,7.4,4.7,17.8,6.3,29s6.1,27.6,15.8,29.2c9.8,1.6,14.5-8.6,18.2-16.2c3.7-7.6,11.2-29.7,14.9-42.3c3.7-12.5,10.6-24.8,29-34.6
	c18.4-9.8,42.1-11,56-3.5s25.2,17.6,30.1,35.8c4.9,18.2-0.8,30-5.9,35c-5,5-14.6,18.5-14.6,18.5c-6.7,10.7-14.9,17.1-20.3,20.6
	c-5.5,3.5-13.7,7.2-13.7,14s9.3,11.9,14.9,13.2c5.6,1.3,15.5,0.5,21,6c5.5,5.5,10,14.3,10,23.3s-6.3,14.7-14.1,14.7
	c-7.8,0-14.7,1.2-18.8,9.1c-4,8-12.7,31.7-17.1,45.3s-10.3,33.1-10.8,55.4c-0.5,22.3,3.5,36.3,8.3,47c4.8,10.7,6.8,22,3.5,33.1
	c-3.3,11.1-11.9,14.7-16.7,19.6c-4.8,4.8-12.7,15.4-15.8,18.5s-11.7,7-13.8,9.1c-2.1,2.1-4.8,4.3-3,7.6s7.4,2.9,12.8,0
	c5.3-2.9,15.3-13.2,17-13.2s2.9,7.9,1.9,12s-8,13.7-8.9,13.7s-1.9-8.2,0.5-13.2c2.3-5.1,4.6-7.4,5.4-7.4c0.8,0,2.5,4.6-1.5,10.9
	s-6.7,11.2-5.7,16.2c1,5,5.3,10.4,4.2,16.1c-1.1,5.7-4.4,7.5-6.7,7c-2.3-0.5-8-5-10.6-12.4c-2.6-7.4-1.6-15.5-0.5-19.4
	c1.2-3.9,1.1-6.1,0.1-6.1s-5.7,1.6-6.3,14.3c-0.6,12.7,6,22.8,8.6,26.7c2.6,3.9,11.3,12.5,18.5,12.5s9-3.7,11.3-3.7
	c2.3,0,4.6,1.4,7.6,1.4s4.4-2.6,3.5-3.6c-1-1-2.1-1.8-2.1-3.3s-0.4-2.5-2-3.5c-1.6-1-2.4-1.5-2.4-3.6c0-2.2-2.2-6.4-3.9-7.1
	c-1.8-0.7-3.1-1.6-4-0.7c-0.8,0.8-3.2,5.5-3.8,5.5c-0.7,0,5-8.7,8.9-14.3c3.9-5.5,20-28.4,26.5-46.4c6.5-18,4.4-40.4,3.7-50.1
	c-0.8-9.7-0.4-28.2,3.7-41.7s5.7-28.8,5.7-44.2s-0.5-41.2,1.2-50.2c1.7-9,7.2-25.8,7.2-31.6c0-5.7-0.7-21.5-5.2-30.9
	c-4.6-9.4-12.3-18.9-25.6-17.7c-13.3,1.2-21.9,8.6-38.1,5c-16.2-3.7-26-17.2-29.5-22.8c-3.5-5.6-6.1-13.2-13.5-15.6
	c-7.4-2.4-23.3-5.2-30.5-5.2c-7.2,0-13.2,4.4-17.9,15.3c-4.7,10.8-5.5,22.6-5.5,30.3s1.6,19.3,13,40.7c11.5,21.4,18,34.6,21.8,53.2
	c3.8,18.7,2.3,36.8,0.5,45.9c-1.8,9.1-0.5,21.3,6.1,25.8c6.7,4.6,21.5,12.1,30.3,13.2c8.7,1,11.5,0,12.7-5.6
	c1.2-5.6,5.6-32.7,8.7-43.2s11.3-27.1,21-38.5c9.7-11.3,23.5-35.6,28-40.2s16.3-15.1,27.1-8.6c10.8,6.5-1.7,7.3-1.7,19
	c0,0-0.5,3.3,1.5,4.2c2,0.9,3.1,1.1,3,3.8c-0.3,9.3-13.7,37-23.7,61.2c0,0-9.8,20.4-15.7,31.8c-5.9,11.3-15.7,27.2-19.8,35.5
	c-4.1,8.3-6,18.1-8.2,23.7s-8.6,16.3-10.7,23.7c-2.1,7.3-4.8,12.4-3.4,13.8c1.4,1.4,10.8-2.4,18.2-8.3c7.4-5.9,20.2-18.5,26.8-25.1
	c6.6-6.6,17.8-18.2,23.3-26s9.3-15,13.9-27.5c4.6-12.5,3.8-14.3,7.6-26.3c3.8-12,8.9-30.5,13.4-41.3c4.6-10.8,8.9-23,8.2-31.7
	c-0.7-8.7-11-9.9-15-9c-4,0.9-12.7,0.3-15.5-1.3s-9.8-32.6,6.5-54.5c16.3-21.9,47.9-21.3,55.7-21.3c7.8,0,27.3,5.3,36.1,9
	s33.7,2.8,41.7-5.2c8-8,5.8-18.5,6.3-26.3c0.7-11.6,5.3-21.1,10.6-28.8s1.8-31.2-4-37s-13.4-8.1-21.7-8.1c-8.2,0-15.1-1.2-18.5-4.6
	S619.4,54,615.1,54c-4.3,0-13.6,3.7-15.3,12.5c-1.7,8.9,3.7-10.4,28.4-7s28.6,21.9,28.6,24.7c0,2.7-2.4,6.7,0.3,9.4
	c2.7,2.7,9,1.9,11.7,2.7c3.1,0.9,4.8,2.8,3.9,6.6s-6.3,7.4-7.3,12.5c-1,5.1,2.3,13.3,3.8,19.7c1.4,6.4,3.5,21.9,0,30
	c-3.5,8.1-9.9,16.2-30.8,18.3c-20.9,2.1-28.8-3.5-30.8-5.5s-2.5-9.1,0.8-15s5.5-9.3,5.5-11.3s-7.8-0.3-12-2.1
	c-4.2-1.8-12-12.8-14.7-20.1c-2.7-7.3,0.8-14.3,0.8-18c0-8-3.8-11.7-3.8-15.4c0-5.9,6.5-11.9,7.3-14.2c1.7-5.1-3-17.3,9.3-25.6
	s25.8-10,36.5-6.4c10.7,3.7,27.4,15.9,32.2,20.7c4.8,4.8,11.3,18.5,6.6,44.5c-4.7,26-3.8,35.5-1,43.8s22,4.7,26.7,4.7
	c4.7,0,9.7-1.2,15.1,2.9c5.5,4,15,14.3,18.5,21.5c3.5,7.2,5.5,15,0,16.3s-10.7-10.4-12.8-19.3c-2.1-8.9-5.3-21.7-8.1-24.4
	s8.6-13.3,11.7-15.3c3.1-2,27.5-21.7,33-25.2s11.5-8,14.6-8s6.9,1.7,1.6,5.2c-5.3,3.5-33.5,19-42.9,19.8s-12.7-2.5-26.2-1.6
	c-13.6,0.9-25,2.6-29.1,0.9c-4-1.7-12.9-14.9,3.8-24.5c16.7-9.7,48.5-13.3,59.7-15.5c11.2-2.2,33.8-5.9,41.9-5.9
	c8.1,0,21.4-0.1,25.2,5.3c3.8,5.5,7.7,22.2-21.9,57.7c-29.6,35.5-36.5,37.7-46.8,50.6s-14,24.4-17,49.2s7.2,66.4,13.8,93.3
	c6.7,26.9,6,44.6,3,50c-6.1-1.8-15.8-6.1-32.5-6.1c-16.7,0-46.2,7.2-60.9,8.7c-14.7,1.6-28.2-0.2-41-0.2c-12.8,0-24.9,2.4-28,3.4
	c-3,1-7.5,0.8-8.8-4.8c-1.3-5.6,5.6-28.7,5.6-43.6c0-14.9-2.8-44.9-15.1-68.1c-12.3-23.2-9.8-51.9-7.6-58.6s7.6-12.5,10.2-11.6
	c2.6,0.9-0.5,9.9-4.6,16.4c-4,6.5-16.7,20.9-7.6,40.4c5.9,12.7,11.9,19,22.8,29.9s19.8,23.6,19.8,44.1c0,20.5-11,37-17.3,48.5
	s-14.4,26.5-16.8,36c-1.1,4.3-4.8,21-3.1,38.6c1.7,17.6,7.3,60,5.5,73.4c-1.8,13.4-6.8,17.5-9.8,10c-2.9-7.5,4.3-48.8,10-69.9
	s15.5-57.1,19-64.7c3.5-7.6,8.2-18.4,28.8-17.7c20.6,0.7,28,2.7,30.3,6.1c2.2,3.4,0.9,11.3,2.2,15.5s4.6,10.7,18.4,18.9
	c13.8,8.2,13.8,23.5,13.2,31.8c-0.7,8.3-3,20.5-4.6,31.6s-2.9,24.4-2.9,33.3s0.3,16.3-4.4,21c-4.7,4.7-7.2,2.2-7.8-5.1
	c-0.7-7.3,2.9-19.8,10.4-30.8c7.6-11,6.7-14,10.6-14c4,0,7,4.2,7,14.4c0,10.2-0.3,22.4,6.1,28.8c6.5,6.5,13.6,7.3,26.2,7.3
	s36.8,0,42.4,0s10.2-3.1,10.2-12.5s-5.5-20.3-5.5-27.8c0-7.4,2.6-29.1-0.8-37.2c-3.4-8.1-11.6-19.4-24.4-29.1
	c-12.8-9.7-5.7-24.1-3.7-26.1c2-2,3.9-10.7,3.9-15.5s4.8-6.8,6.5-5.1c1.8,1.8,6.8,5.1,12.7,30.1c5.9,25,10.2,34.3,12.4,43.7
	c2.2,9.4,4.3,31.7,6.1,45.1c1.8,13.4,4,32,4,32h31.2h93.8"/>
</svg>
