<svg xmlns="http://www.w3.org/2000/svg" fill="none" stroke="white" stroke-width="4" stroke-dasharray="8962" viewBox="0 0 1453.8 913.7">
	<path d="M8.3,871.4c0,0,13,9,23.2,17.1s18.7,16.8,24.3,15.9s-0.1-19.4-1.1-24.2c-1-4.8-8.1-31.9-8.1-54S46,775,50.9,729
	c4.9-46,11.9-88,18.8-119.5S86.1,556,91.3,556s11.3,19.4,11.3,65.1c0,45.8,1.3,92.3,17.3,92.3s28.6-48.1,31.7-58.3
	c3.1-10.2,8-27.5,7-49c-0.9-21.5-2.6-58.4,1.2-72.7s10-17.5,12.8-17.5c4.3,0,7.3,6,10,18s9.8,38.5,29.3,47.9s33.8-1.2,38.9-4.4
	s11.6-8.3,13.8-7.6c2.2,0.8,6.4,5.1,11.1,15.8c4.7,10.7,17.5,38.6,39.9,38.6s51.8-26.5,51.8-39.4c0-12.9-17.7-6.4-23.1-5.7
	c-5.3,0.7-33.5,3.5-42.1-8.2c-8.6-11.7-11.7-29.1-9.8-49.3c-8,14.5-12.1,28.8-27.5,28.8c-15.4,0-60.9-25.8-60.9-48
	c0-22.2,25.3-16.7,36.3-12.1s26.6,11.1,36.1,11.1s21-8,23.1-8c4.4,0-0.1,8,6.1,18.9c3.2,5.6,26.9,26.1,50.5,26.1
	s22.8-18.9,22.8-23.9s-1.6-16.8-19.2-34.3c-17.5-17.5-11.9-43.7-9.5-55.8c2.3-12.1,16.5-49.1,40.8-50.5c22.9-1.4,35.2,5.2,46.2,8.4
	c11.1,3.3,23,8.5,45.3,8.5c22.3,0,37,1.6,49.7,12.3c12.7,10.7,31.8,35.6,31.8,45.1c0,9.5-8,13.4-41.9,13.4s-50-1.8-50-5.1
	s36-9.9,62.1-9.9c26.1,0,45.3,7.7,57.5,28c12.3,20.3,22.3,57.4,22.3,73.7c0,16.3-0.5,19.2-7.2,19.2s-9.7-15-8-26.5
	c1.7-11.5,10.2-32.5,25.4-41.5s30.7-13.6,38.2-24.9c7.6-11.3,11.7-30.4,12.9-33.7s3.5-7.3,9.9-8.3c6.4-1,13.3-2,13.3,0.1
	c0,2.1-6.7,6.9-12.5,6.9s-15.1-5.3-25.8-11.7s-40-22.8-40-47.6c0-24.8,29.6-34.2,42.7-34.2c5.2,0,7.2,1.8,10,6
	c2.9,4.2,32.7,48.3,36.4,55c3.7,6.8,7.3,21.8,7.3,29.7s-4.4,30.4-5.3,43.7s-3.4,48.9-10,71c-6.7,22-19.8,43.2-22.2,50
	c-2.3,6.8-8.7,27.3-10.4,33.3c-1.7,6-4.6,17.6-21.3,17.6c-16.7,0-30.7-16.6-38-22c-7.3-5.5-14-11.9-32.5-14.3s-41.7-3.7-58-10
	c-16.3-6.4-26.3-20.9-32.5-32.7s-16.2-32-16.2-46.2s7.7-10.9,10.3-9.7c2.7,1.3,6.4,6.1,6.4,13.8c0,7.7-5.3,26-23.9,39
	c-18.5,13-37,12.7-45,13.3c-8,0.7-27.3,0.9-27.3,16.3s10.7,16.8,10.7,27.5c0,10.7-19.8,16.6-32.1,18.5c-12.3,2-42,5.8-70.8,5.8
	s-71.2-4.1-98.4-26.4c-27.2-22.3-36-56.8-36-69.9c0-19.4,4.9-48.9,4.9-63.2c0-14.3,3.3-30.5-3.1-53.2c-6.5-22.7-8.2-45-6.1-65.7
	c2.2-20.7,14.5-60.1,31.5-60.1c12.1,0,18.6,29.3,27.6,53s30.9,76.9,76.3,76.9c35.6,0,41.3-24.8,49.5-38.2
	c8.2-13.3,16.8-25,19.4-31.5c2.5-6.5,8.8-23.9-6.5-34.8c-15.3-11-31.7-22-38.9-32.5c-9.8-14.3-6.7-47.5-10-54.4
	s-24.3-40.5-66.3-40.5s-27.7,22.5-25,26.2c4.1,5.9,21.7,10,21.7-15.3s-24.1-76.5-64.2-76.5c-24.8,0-25.6,30.7-19.6,31.7
	s38.7-9.2,48.7-31.7s12.3-44.4,31.9-61s32.7-25.6,46.8-23.7c14.1,2,0.2-12.5-3-15.1c-3.7-2.9-13.6-4.4,0.9,18.3c0,0,17.8,26,36.6,26
	c18.8,0,14.1-19.8,1.7-19.8c-12.4,0-5.3,18.3,17.2,18.3s26.2-23,26.2-29s-3.4-10.7-16.9-19.3S297.1,9.2,283.4,9.2
	s-29.9,16.1-48.7,18.1s-51.7,10-73.4,20s-44.4,24.3-55.8,39.1s-11.4,23.2-31.7,43.4s-27,32.1-19.4,55.2s28.4,61.2,47,84.1
	s55.2,44.6,71.6,44.6s24.1-24.8,26.8-34.4c2.7-9.6,3.7-38.7-17.4-51.7s-53.4-26.4-70.8-26.4s-20.2,18.4-0.6,40.1
	s87.7,41.7,102.7,45.6c15.1,3.9,59.1,15.5,100.4,15.5s64.8-29.5,68.1-34.6c3.3-5.1,7-14.1,7-36.4s6.3-72.4,54.2-72.4
	s84.2,33.4,88.6,37.8c4.4,4.4,19.6,30.7,19.6,45s-15.5,4.1-20.7,2.2c-5.3-2-23.1-10.8-29.7-10.8c-6.7,0-10.4,12.7-19.4,12.7
	s-23.1-8.6-31.1-8.6c-8,0-0.6,24.3-11.7,24.3c-11.2,0,1-34.4-11.2-34.4c-19.2,0-4.1,32.1-17,32.1c-12.9,0-6.3-34.8-0.6-45
	c5.7-10.2,11.2-21.1,50.7-21.1s63.4,19.2,68.7,29.5c5.3,10.4,15.3,30.4,7.2,55.8c-5.3,16.7-8.4,17.2-18.2,40.1
	c-9.8,22.9-28.8,25-38.5,25c-9.8,0-27.8-4.7-37-23.9c-9.2-19.2-13.1-39.7-11.2-48.3c2-8.6,7.4-5.1,10.1-0.5c2.6,4.6,6.6,18.5,3.8,31
	c-2.7,12.5-5.1,29.5,4.1,48.9c9.2,19.4,4.1,24.8,16.2,28.2c12.1,3.3,32.1,10,40.1,27.4c8,17.4,7.6,27-4.1,29.5
	c-11.7,2.5-36-1.8-48.3-1.8c-12.3,0-23.3,3.5-23.3,27.4s11.7,37.6,13.5,49.1c1.8,11.5,7.6,16.8-10,30.7s-43,31.1-50.9,41.3
	s-11.3,13.3-12.9,23.3s-7.8,21.7-15.5,34c-7.6,12.3-27,30.1-38.5,41.7c-11.5,11.5-25.4,22.3-20.7,30.9s46.6,19.8,106,19.8
	s89-4.5,123.1-10.6c34-6.1,96.1-21.3,160.4-39.9c64.4-18.6,124-36.2,149.9-44.4c25.8-8.2,147.7-44.4,228.3-60.5
	c80.6-16,128.7-21.5,194.1-21.5s145.6,19.2,188.2,47.7"/>
</svg>
