<svg xmlns="http://www.w3.org/2000/svg" fill="none" stroke="white" stroke-dasharray="6036" stroke-width="4" viewBox="0 0 974 373.2">
<path d="M10.2,363.8h119.2c0,0-26-59-30.9-107.5s-5.7-74.1,7-88.8c12.7-14.7,24.3-11.9,32.7-11.9s58.7,0,58.7,0
	s-14.9,14.3-20.3,24.7s-18.8,34-18.8,63.2s2.5,52.2,4.1,69.8c1.6,17.6,8,45.6,10.6,50.5c11.9,0,92,0,92,0s-18.8-7.2-40.7-25.6
	c-21.9-18.4-50.1-63.2-53.8-84.5c10.2,6,29.2,20.2,53,20.2c18.2,0,22.9-3.7,22.9-3.7s-9.8,15.7-9.8,29.7c0,14.1,3.1,23.1,3.1,23.1
	s2.9-37.6,25.2-50.5c-4.3,11.7-7.8,27-7.8,48.1c0,28.4,25.6,43.2,25.6,43.2s31.1-15.7,42.8-50.1s8.2-54.1,8.2-54.1
	s-10.8-9.7-21.3-13.2c-10.6-3.5-21.1-5.7-21.1-5.7l19.2-33.8c0,0,23.4,4.6,33.8,15.1c3.5-5.3,7.6-12.3,7.6-12.3s9.6,0.2,20.2-7.8
	c10.6-8,20-17.4,20-24.1s-2.3-10.8-5.5-13.9s-7.2-8.4-7.2-8.4s5.4-12.9-6.4-12.9c-17.8,0-41.5,19.9-41.5,19.9s-3.7-18.8-12.8-18.8
	c-9.1,0-4.9,3.2-4.2,4.9s4.3,6.9,1.6,15.2c-2.6,8.3,4.2,20.3,4.2,20.3l-3.7,11.7c0,0-18-16.6-26.3-29.8c-8.3-13.2-12.8-20.1-18.4-45
	c-3.3,3.3-16.3,18.3-16.3,18.3s0,23.9,16.8,37.4c-18.8-15.2-26.5-32.2-26.5-32.2l-34.6,7.4c0,0,12.1,8.2,22.3,31.3
	c10.2,23.1,2,47.7,2,47.7s9.3,31.7,24,31.7c14.7,0,26.9-12.4,26.9-12.4s21,5.2,36.9,13.7c15.9,8.5,27.1,17,33.1,28.3
	c0.7,14.6-1.7,50.1-17.2,69.4c2.2-10.3,8.7-47.5,8.7-62.5s1.6-63.8-10.2-92.2s-19.8-42-29.6-54.5c-9.8-12.5-15.3-27.4-15.3-32.6
	c-4.4-0.8-11.7-5.6-14.2-12.5c-2.5-6.9-6-14.6-5-21.5c1-6.9,7.2-7.7,9.8-7.7s7.4,2.2,10.3,7c2.9,4.8,4.6,9.7,4.6,9.7h8.6
	c0,0,0.3-15.5,6.4-20.1s14.1-4.6,14.1-4.6s-3.1-9.4-3.1-17.7s1.7-12.4,1.7-12.4s14.2,5.2,33.4,5.2c19.2,0,19.8-5.9,19.8-5.9
	s-4.8-19.7-35.5-26.7s-48.5-2.3-60.7,7.4s-21.7,24.1-21.7,41c0,29.9,8.6,45.7,8.6,45.7s-7.6-38.7,6-60.1s27.1-26.2,27.1-26.2
	S326.4,34,346.1,35c19.7,1,22.4,0.1,22.4,0.1s14,19.6,15.4,45.4c-4.7,6.7-10.6,12-10.6,18.5c0,6.5,5.5,17.7,6,19.6
	c0.5,1.8,0.9,3.8-1.7,5.2c-2.6,1.4-7.8,2.2-9.3,2.2s-4.7,3-4.7,6.3s2.9,2.7,3.5,4.7c0.7,2,8.1,23.3,10.6,35.1
	c2.5,11.7,5.6,12.4,6.3,28.6c5.9,7.7,14.3,16.8,24.9,28.7c12.3,13.7,21.7,28.4,23.5,31.8c1.8,3.4,12.8,8.3,23.3,17.5
	s15.8,18,15.8,18s8.7,1.3,14,3.5c5.2,2.2,11.5,5.2,13.3,6.9c3.8-0.3,11.4-2.5,18.9-1.7c7.3,0.8,14.2,7.3,16.5,11.3
	c5.6,2.4,47.8,8.8,47.8,8.8s-16.2,6.9-22.4,16.3c-7.7,11.6-5.7,22-5.7,22h-81.4c0,0-40.1-15.3-63.7-35.5
	c-27.8-23.8-41.5-41.5-41.5-41.5s32.3,9.8,48.4,11.7c16,1.9,33.6,3.1,40.9-1.8c-1.7,9-5.2,24.8-5.2,24.8s11.9-14.3,20.1-16
	c-2.3,6.2-10,20.8-10.9,28.2c10.4-8.3,20.6-19.5,26.3-20.5c4.3,0.3,60,11.8,75.8,14.8c15.8,3,24.8,5,29.3,5c4.6,0,14.6,0,14.6,0
	s20.5-12.9,39.7-12.9c19.2,0,30,16.7,30,17.9s-0.5,4.2-5.5,6.7c-5,2.5,0.5,5.9-1.1,7.5c-1.6,1.6-3,1.1-3.7,1.1c-0.7,0-44.7,0-44.7,0
	l-5.2,10.1h145.5v-9.7h-35.9l23.6-29V305h41.2L813,133.6l-217-17.6l-19.6,185.9l9.4,2.9l18.6-179.6l8.4,4.7l-18,175.3h119.9v17
	l-28.2,31.1h19.6l26.8-29.5v-46.2h15.5v9.4c0,0,15.1,24.1,39.5,31.9c24.5,7.8,38.3,5.8,49.7,13.1c19.6,12.5,24.1,30.7,24.1,30.7
	h102.1"/>
</svg>
