<svg xmlns="http://www.w3.org/2000/svg" fill="none" stroke="white" stroke-width="4" stroke-dasharray="9501" viewBox="0 0 935.4 752.4">
	<path d="M9.6,529.5c0,0,28.7,0.5,55.7,13s39.1,20.5,63.2,44.6c24.1,24.1,46,33.5,83.5,33.5s51.7-17.4,60.3-32.3
	s16.2-41.1,16.2-58.8c0-17.7-8-37.9-8-58c0-20.2,14.7-39.5,41.3-39.5s58.7,12.9,78.5,23.1s39.3,13.9,60.1,13.9
	c20.7,0,45.6-15.1,55.2-27.4c9.6-12.3,26.2-36.6,26.2-69.8s-13.3-52.8-45-52.8c-43.4,0-93.9,30.3-132.1,30.3
	c-22.3,0-26.6-14.2-34.4-24.5c-5.9-7.7-11.7-12.1-13.5-12.1c-4.1,0-5.1,8.8,0.2,14.1c5.3,5.3,15.3,17.2,15.3,19s-8.4,2-13.3-1.2
	s-22.9-28.8-35.8-28.8c-2.9,0-1.2,4.6,3.7,9.9c5.4,5.9,14,13,15.7,15.1c3.4,4.3,2.5,6.8,2.5,6.8s-13.4,3.3-31.6,0.7
	c-18.1-2.6-40.7-7.8-52.6-10.7c-11.9-2.9-33.8-15.8-40-17.1s-23.6-1.3-27.4-2c-3.8-0.7-13.8-3.9-19-10.8c-6.8-9-3.9-26.5-14.2-26.5
	s-5,11.9-1.4,19c3.5,7.2,5.6,15.1-2.3,15.1s-19.2-10-29.1-14.1c-9.9-4-21.9-6.4-28-8.5c-6.1-2.1-9.7-5.2-9.7-7.4
	c0-5.2,14.2-0.8,18.5-0.8c4.3,0,6.5-2.5,4.6-4.4c-2-2-19.5-8.2-26.9-15.5s-0.6-6.6,0.6-6.6s6.3,1.9,6.3,1.9s-13.4-7.9-12.2-14.1
	c1.2-6.2,21.6,8.9,21.6,8.9s-14.8-11-12.7-16.4s22.5,11.1,22.5,11.1s-6.7-12.8,0.7-15.2c4.8,2.2,11.4,10.4,15.3,16
	c3.9,5.6,12.4,17.7,22,20.9s26.5,1.3,32.1,1.3c12.9,0,25.5,11.1,35.9,12.4c14.6,1.8,43.7-1.6,57-1.6c19.7,0,26.1,13.6,45.7,13.6
	c19.6,0,20.9-3.3,30.9-3.3s20.5,4.6,32.1,4.6c11.6,0,18.3-3.5,18.3-3.5s9.9,8.1,16.7,16.8c6.8,8.7,17.1,20.1,34,20.1
	c17,0,29.2-14.3,29.2-26.5s-4.4-13.3-4.4-22.7c0-9.4,5.2-8.6,5.2-20.7s-8.2-6.9-12.4-13.7s-2.2-9-7.7-17.2s-7.6-13.2-6.5-16.7
	c1-3.5-15.1-3.5-18.5-3.5c0-4.3-1.7-7.3-7.7-7.3s-11.3,4.6-14.1,4.6s-3.5-2.2-4.2-1.5c-0.7,0.7-21.6,6.9-21.6,39.8
	c0,22.8,13.3,4.2,16.7,2.6c0,0,3.8-3.9,9.9,0c5.3-4,14.6-13.2,25.8-13.2c11.2,0,18.1,15,18.1,15s-32.7,0-45.1,5.1
	c-12.4,5.1-16.2,12.9-16.2,19.4s7.3,14.5,11.1,18.3c3.8,3.8,16.5,16.5,19,19c2.5,2.5,11.3,12.5,28.5,12.5
	c17.2,0,26.7-14.5,30.7-21.9c3.9-7.4,6.5-27.1,8.6-32.5c2.1-5.3,6.9-11.3,10.7-11.3c3.8,0,5.3-1.7,5.3-4.6s2.5-14.6,9-14.6
	c6.5,0,11.3,3.5,15.5-3.8c4.2-7.3,5.6-21,11.6-24.5c6-3.5,13.3-3.8,15.8-9s5.5-15.3,11-18.5c5.5-3.3,12.7-8.2,17-16.4
	s7.2-17.9,17.5-28.2s31-30.8,34.7-36.7c3.7-5.9,11.5-20.5,16.4-33.8s6-16.8,9.1-21.1s1.7-9,1.7-11.9s0.5-11,4.4-15
	s11.1-10.8,12.3-9.7s2.9,4,4,4s7.8-7.5,8.9-6.3c1.2,1.2,0.8,5.3-1,12s-5.5,14-5.5,14s5.8-3.9,7.2-2.5c1.4,1.4,0,11.9,0,17.5
	s1.2,25.6-2.5,34s-11.6,14.7-12.3,14.7c-0.7,0-4.4-15.1-6.7-18.7c-2.2-3.5-7.2-6.7-8.6-5.2c-1.4,1.4-2.2,11,0.9,21.9
	s-0.5,23.5-8.3,31.3s-21.8,22.4-28.4,35.9c-6.7,13.4-13.2,30.3-18.5,43c-5.3,12.8-13.3,33.1-17,34.3c-3.7,1.2-2.7-14.3-1.7-18.7
	c1-4.3,4.2-18.5,3.4-26c-0.8-7.4-3.3-5-4.2-4s-9.5,7.4-9.5,31.6s0.3,32.5-2.2,43s-6,17.2-7.6,17.2c-1.6,0-5.9-7-3.7-24
	c2.2-17,2.2-38.5-4.3-39.1s-7.8,43.6-6.5,53.1c1.3,9.5,9,35.7,15.7,51.5c6.7,15.8,14.9,32.6,14.9,50.3c0,17.7-16.7,36-33.4,44
	c-16.7,8-33.5,16-52.4,21.5c-18.9,5.5-30.1,7.7-46.4,7.7c-16.3,0-23.6-5.5-31-12.9c-7.4-7.4-7.4-25.6-8.1-33.8
	c-0.7-8.2,2.3-47.2-26.9-47.2c-15.5,0-4.6,17,0.7,24.7s57.1,47.6,57.1,75.7c0,0,0.9,65-37,65c-27.3,0-35.5-42-29.3-43.4
	c6.3-1.4,33.8,10.4,33.8,57.5c0,37.6-5.7,50.1-7.3,57.9c-1.6,7.8-2.7,24.4,2.9,35.1c5.6,10.7,15.3,24.7,16,35.7
	c0.8,11.1-1.2,28.7-9.9,28.7c-8.7,0-9.5-21.9-9.5-29s-2.6-26.7-20.7-30.3s-28-5-28,0.9s16.2,13.3,25.7,17.7
	c9.5,4.4,20.6,8.3,20.6,23.3s-11.3,12.7-15.8,8.2s-5.7-21.7-22.2-24c-16.4-2.3-31.3-0.9-39.7,14.3c-8.3,15.3,5.5,24.4-10.3,31.8
	c-15.8,7.4-114.5,19.2-137,21s-36.4-1.2-42-3.6s-19-6.7-19,0.3c0,6.9,7.1,14.1,22.1,16.6c15,2.5,34.4,5.4,60.2,2.5
	s584.1-70.2,599.2-72.1c15.1-1.9,33.1-4.1,48.5-17.9c15.5-13.8,22.2-21.9,22.2-25.7c0-3.8-9.9-5.1-24.2,0.1
	c-14.3,5.2-45.8,20.5-59,23.2c-13.2,2.6-59.7,12.5-73.6,14.7c-13.9,2.2-152.4,20.3-169.5,22.8c-17.1,2.5-64.6,9.3-81.1,10.7
	c-16.6,1.4-36.3,3.5-37.7,2.1c-1.4-1.4-0.4-13.2,3.3-27.7c3.7-14.5,5.7-30.3-0.1-40.2c-5.9-9.9-21.5-25.4-27-32.2
	c-5.5-6.8-7.4-12.7-5.9-23c1.6-10.3-0.5-18.3,0.5-26.3c1-8.1,2.6-14.1,5.7-14.1s8.9,9.1,18.1,9.1s13.2-2.9,23.3-2.9
	c10.2,0,38.2,13.4,56.1,13.4s50.7-1.6,62.3-15.5s10-35.2,11.2-45.5s9-37,17.3-37s7.3,9.5,5,24c-2.3,14.5-12.8,34.4-16.2,43.7
	s-8.7,22.8,5,39.5c13.7,16.7,5.6,29.5,5.6,33.4c0,3.9-0.8,8.7,10.6,8.7s10.2-5.1,19-5.1c8.9,0,11.9,6,11.9,8.5
	c0,2.5-6.7,4.8-15.7,6.4c-9,1.6-28,2.4-29,12c-0.5,5.5,27.1-3.9,43.4-3.9s20.9,7.4,20.9,15.4c0,8,0.1,7.7-2.6,6.9
	c-2.7-0.8-32-11-46.3-11c-14.3,0-26.9,13.8-26.9,28.4c0,14.6,9.4,12.5,12.8,12.5s19.2-4,32.5-5.3c13.3-1.3,32.6-3.7,41-8
	c8.3-4.3,8.5-7.4,7.4-13.3s-12.3-20.1-18-30.8c-5.7-10.7-12.7-24.8-12.7-39.1c0-14.3,8-30.5,8-33.8s-3.2-2.5-4.8-0.9
	s-8.9,15.9-14.2,15.9s-2.5-11.1,0.4-18.8s16.8-36.5,19.3-43.4c2.5-6.9,5.1-20.9-0.4-20.9c-5.5,0-10,9.7-17.1,9.7
	c-7,0,11.6-32.3,12.8-41.7c1.2-9.4-2-27.8-30-27.8s-46.6,21.5-54,33c-7.4,11.5-21.8,31.6-33.1,39.1s-14.6,4.6-12.7-0.4
	c2-5,18-14.5,20.7-17.2c2.7-2.7,21-30,26.2-37c5.2-7,19-25.8,53.6-25.8c34.6,0,40.4,27.1,41.9,32.1c1.4,5,3.1,17.1,1.6,33.9
	c-1.6,16.8-2,31.7-0.5,40.6c1.4,8.9-0.5,22.2-5.2,33c-4.7,10.8-6.1,23.1-1.7,35.2c4.4,12.1,3,26,3.8,32.5c0.8,6.5,3.7,18.5,3.7,23.3
	c0,4.8,1.8,16-17.1,21.9s-75.5,11.9-88.3,13.7c-12.8,1.8-93.8,13.2-108.1,16.3c-14.3,3.1-30.5,8.2-38,4.3c-7.4-3.9-6.7-16.8-8.9-23
	s-8.6-15.8-26-18.3c-17.3-2.5-23.7-9.1-23.7-17.7s2.6-21.5-5.2-32.9c-7.8-11.3-13.7-22.8-13.7-37.6s6.5-12.1,10.8-10.3
	c4.3,1.8,15.1,15.8,18.3,25.7c3.1,9.9,15.3,36.1,32.7,36.1c17.5,0,1.7-28.2-0.3-36.1c-2-8-2-8-2-8s-7.2-26.5,0.5-39.5
	c7.7-13,26.6,0.1,33.9,1s29.6-1.8,34.7-1c5.2,0.8,35.3,7.6,52.8,9.5c17.5,2,53.7,4.3,73.7-6c20-10.3,31.6-37.2,36.5-46.8
	c5-9.7,15.8-33.5,26.7-33.5c11,0,1.3,34.6-0.9,41c-2.2,6.4-9.9,34.6,2.3,34.6s32.9-25.6,40.7-33.4s21.3-27.4,64.3-27.4
	c43,0,40,19.7,85.4,19.7s98.2-33.9,120.3-82.3"/>
</svg>
