<svg xmlns="http://www.w3.org/2000/svg" fill="none" stroke="white" stroke-width="4" stroke-dasharray="9820" viewBox="0 0 660 755.8">
<path d="M566.2,754.3c8.9-25.8-2-85.5-14.3-97.8c14.3,31,6,97.8,6,97.8c-95.7,33.1-236,1-236,1s-54-16-58.8-67
	c13.9,7.2,40.9,23.5,133.8,27.6C355.4,711.8,260,697.1,260,676s89.4-16.6,89.4-16.6s0.5,4.8-3.1,8.4s-7,5.8-7,13.4
	c0,7.4,6.8,23,6.8,23s-4.5-16.1-3.3-22.9c2-11.1,11.9-12.5,11.2-22.3c-0.7-9.8-7-29.2-7.7-38.5s2.8-11.7,5.6-12.9
	c4.2-1.8,10.1,2.4,3.7,8.9s-16-2.4-19.3-5.7s-18.8-20.7-18.8-28.4s6.8-6.3,6.8-3.1s-3.4,8-10.6,8.5s-17-12.7-17.6-14.9
	c-0.7-2.2,4.7,0.3,8.7,4.3s8.5,11.1,7.8,16.3s-8.3,10.2-11.3,8.3c-3-1.8,4.7-12.9,13.2-8c8.5,5,23.5,19.6,26.2,23.9
	c2.7,4.3,3.8,15.1-5.8,12.8c-7.1-1.6-0.8-11.5,1.8-10.8c2.6,0.8,8.9,4.8,5.9,10.2c-3,5.3-10.5,6.2-17.7-1s-30.7-24.9-35.5-28
	s-10.6-10.2-6.4-9.1c4.2,1,24.7,19.8,32.9,31.2c8.2,11.3-0.1,8.7-3.3,8c-3.1-0.8-15.3-5.3-22.6-10.7c-7.3-5.3-4.8-8.9-3.8-8.9
	s3.8-1.6,8.1,4.8s3.8,10.2-1.7,10.2s-22.2-6.1-29.1-17.3c-6.8-11.2-2-15.1-10-19.4c-8-4.3-43.9-18.3-53.8-28.2
	c-9.9-9.9-20.3-25.4-16.8-43.6s13.4-19.3,15-19.3s9.1,2,3.7,24.9c-5.5,23-17.2,23.9-21.1,23.9s-17.1-5.5-17.1-28
	c0-22.6,13.7-36.4,23.7-40.7c10-4.3,27.9,0.1,32.3,3.1c-6.8-4.2-15.4-8-25.7-8s-22,4.8-30.4,24.7c-3-5.1-6.2-19.6,0.9-26.7
	c7.1-7.1,12.5-3.8,12.5-11s-3.1-8.2-3.1-13.2s7.2-5,9.8-5s8-4.3,8-12.4s-0.5-26-0.5-35.3c0-9.4,0.6-15.5,4.7-17.6
	c4.1-2.2,5.5-8.5,6.6-16.6s3-46.4,5.8-63.8c2.7-17.5,8.2-32.7,19.8-38.2c11.6-5.5,29.6-13.3,41.1-16.7s15.8-4.1,21-3.4
	s18.5,0.8,24.7-0.9s16.5-2.3,23.4,1.4c6.8,3.7,15.2,16.5,15.2,16.5s-1.9-14.2-13.8-20s-22-2.5-25.5-1.5c-3.5,1.1-19.3,4-26.2,0.1
	c-6.9-3.9-7.7-7.7-7.7-12.1s2-6.5-2.3-9.3s-9.4-5.9-9.4-7.5s7.8-6.4,13-6.4s3.2,2.1-1.2,2.1c-4.4,0-13.8,0.3-14.9-3.5
	s2.7-8.5,2.7-13.6s-5-5.1-7.1-5.1s-12.8,2.1-12.1-7s7.4-15.3,8.5-18.9s2-10.1,3.4-12.8c1.5-2.7,3.4-3.8,2.5-4.6
	c-0.8-0.8-8.4-6.8-9.5-9.3s0.5-2.8,0.5-4.2c0-1.3-2.7-21.9-0.4-34.5c2.3-12.6,10.7-23.4,10.7-23.4s3.9,9.8,24.5,13
	c20.5,3.2,30.8,0,41.3,2.3s26.4,5.7,22.3,34.8c3.1-6.8,6.5-25.5-7.8-34.1s-34.6-5.8-43.3-6.8s-37-6.1-39.4-27
	c-1.6-13.5,21.9-17.7,26.3-18.3c4.4-0.6,31.4-6.4,45.5-11.1s44.2-10,60.3-1.4c16,8.6,25.4,19.4,35.4,36.4c13,22.2,12.6,47,4.8,64.1
	c-7.8,17.1-23.5,31-32,31s-7.2-5.6-7.2-8.1s3.7-30.3-9.9-30.3c-8.6,0-15.9,7.2-15.9,10.8c0,1.6,3.4,7.2,11,7.2s11-11.2,4.4-11.2
	c-6.5,0-14.6,6.8-14.6,14s6.4,17.2,5.7,22.4c-0.7,5.2-4.9,4.8-6.4,6.3s-6.7,6.1-6.7,9.3c0,4.4,4.1,3.6,5.3,4.8
	c1.2,1.2,11.6,37.3-42.1,56.6c11.2-2.2,55.8-14,46.6-57.1c6.5-2.1,13.7-5.5,17.3-14.7c3.7-9.3,3.7-10.4,3.7-10.4s11.1,11.3,28.4-8.3
	c-2.2,15.4-8.1,34.6,3,55.6c-9.3,16.8-18.8,39.1-45,56.3s-63.3,6-69.5,5.5c-6.2-0.5-17.2-1.4-16.4,10.2c0.8,11.6,3.3,25.8,2.7,36.6
	c-0.7,10.8-8,52.3,11.2,75.9c-4.7-14.2-14.6-32.5-9-60.7s2-39.5,0.9-45.5s-3.4-11.5,10.3-11.5s31.2,5,44.5,3.3s34.4-9.1,50.6-30.4
	s27.8-39.5,27.8-51s-8.5-10.7-8.5-10.7s2.6-2.3,5.9-2.3s11.2,4.4,19.2,23.7s-6.1,46.2-13.7,51.4c-10.1,7,12.7-30.3,17.9-35.5
	c5.2-5.2,8.9-5.9,18.9-2.1s71.2,25,79.7,27.1s19.2,2.1,25.6,5s14.2,8.5,21,27.3s12.3,60.5,14.6,72.9s2,24.4,1.3,31.1
	c-0.7,6.8-2.4,12.7,5.3,16.5c7.7,3.9,12,3.9,14.8,24.1c2.7,20.2-2,31.5,4.7,51.3s9.7,15.1,9.7,24.3s-6.5,19.8-6.9,22.2
	s0.4,16.6-7.2,26.9c-7.6,10.3-27.5,12.4-27.5,12.4s11.6-12.5,15.5-26.3c2.3-8.2,6.5-22.5-14.2-41.8c3.7,5,16.2,18.8,9.7,40.5
	s-20.3,29.7-34.6,30.6s-31.9-8.8-31.9-8.8s-31.4,7.8-66.4-8.7c-35-16.6-45.1-23.2-45.1-23.2s-3.9,2.1-8.6,2.1s-5.2-2.7-11.7-1.4
	s-16.4,5.3-26.3-2.1c-9.9-7.4-7.2-14.5-5.9-15.9s6.5,0.8,4.4,2.9s-9.8,3.2-13.4,1.7c-8-3.3-12.1-12.8-7.2-17.7s14.5-3.4,14.5-2
	s-7.8,4.6-18.4,1.4s-10.6-17.9-3.4-21.7c7.2-3.8,10.7-3,10.7-2s-10.6,5.9-20.6,4.2c-10-1.7-10-11.3-8.7-15.3
	c1.3-3.9,10.4-10.6,30.1-15.7c16.2-4.2,6.9,3.9,4,3.9s-9.7-0.9-16.6-15.4s-7.2-18-13.7-19s-8.2-4.4-13.4-14.1
	c-5.2-9.7-19.7-37.2-21.3-38.7c11.1,11.1,27,33.8,27,33.8s-16.2-32.2-21.7-37.7s21.4,22.2,28.2,33.3c-8.6-17.3-22.8-37-22.8-37
	s24,27.4,28.2,35.1c-5.5-11.3-11.6-22.2-21.7-37.4c8.1,9.9,22.4,26.1,30.5,44.9c3.3,7.6,1.2,8.2-0.4,10.8s-4.7,6,0.5,15.9
	s14.6,19,5.2,21.7c-9.4,2.6-9.9-9.5,3.3-14.1c6.4-2.2,11.5,10.3,25.8,13.3s19.1,1,30.4,12.3s18.1,26.3,18.1,30.4s-5.1,3.9-7.2-0.7
	s0.5-7.4,9.4-7.4c0,0,11.8,0,30.2,5.1c18.4,5.1,35.5,4.2,45.1-0.9c9.7-5.1,25.4-14.1,38-5.1c-6.9-7.7-12.8-8.6-21.8-7.7
	c-6.4-12.9-14.1-72.3-11.6-82.8c2.5-10.6,7.4-15.1,8.7-15.1s-0.3,11.7-3.8,18.7c-3.5,6.9-6.5,13-9.7,13s-12.1-58.8,0.7-96.5
	c12.7-37.8,29.2-42.5,29.2-42.5s-27.2,10.6-34.8,41.3c-7.6,30.7-10.6,76.5-2.2,95.5c4.5,10.2,8.4,7.8,8.4,7.8s0.4,29,8.2,57.5
	c6.7-2.2,22.1-9.2,35.8,12.9s19.2,52.1,7.6,68.7c-9.6,13.7-23.7,13.7-23.7,13.7s13,81,2.7,95c-10.4,14-77.3,41.8-167,22
	C358.8,618.8,366,599,367.9,597c2-2,6.1-1.8,6.1,2.3s-7.2,12.5-16.7,4.1s-19-24.8-22.1-31.2s-12.7-12.9-22.2-15.3
	c-9.5-2.3-27.3-6.4-31.3-8.9s-16.8-23-16.8-40.2s4.7-37.6,1.4-48.9c-3.3-11.3-9.6-32.1-11.3-39.7c-1.8-7.6-14.8-47.9-19.2-83.9
	c-4.2-34.9-4.7-43.4-4.7-43.4s-1.2,33.9,6.5,73.4c8.9,45.6,21.7,88.7,22.5,92.6c0.8,3.9-1.4,13.9-18,14.9s-25.3-5.9-25.3-9.4
	s21.7,0.8,30.3,13.6c8.6,12.8,1.7,27.4,1.7,27.4s-14.6-9.4-23.3-10.8c-11.6-1.9-17.5,2.7-17.5,2.7s25.6-3.4,45.5,20.1
	s16.7,25.8,24.5,33.6c7.7,7.7,7.4,16.2,5.2,19.3c-2.3,3-8.9,7.6-6.4-2.8c2.5-10.5,21.2-11.4,23.3-14.9c2.1-3.4,5.6-10.5,10.3-9.8
	c4.7,0.7,16.4,7.6,20.6,8.6s6.8,1.3,6.8-7.2s-1.7-29.6-7.8-40.2c-6.2-10.6-10.8-11.7-17.1-6.4c-6.4,5.4-9.8,22.2-0.9,36.2
	s24,15.3,30.1,19.7c6.2,4.4,10.9,9.6,9,12.3s-7,1.5-5.2-1.7c1.9-3.1,6-4.1,10.6,0.5s11.5,19.1,15.3,24.7c3.8,5.6,6.7,9.3,3.8,14.1
	c-2.9,4.8-8.5,3.3-12,8.9c-3.5,5.6,3.9,22.6,6.7,28.7s9.6,18.8,12.4,21.7s7.6,7.3,17.1,13s9.5,27.1,9.5,32.2s0,8.7,0,8.7
	s46.4,3.9,76.3,0s45.1-9,45.1-19c0-10.1-20.4-24.6-52.5-25c18.1,1.3,53.7,4.3,56.7,24.6S472.5,722,453,722
	c25.6,1.3,52.7,1.1,79.6-11.8c0,5.7-2.8,30.9-33.6,44.1c-29,11.2-85.6,16.3-128.7,15c-61.5-1.9-107.6-13.9-107.6-13.9
	c-12.8-63.9-5.9-97.5-4.4-100.2c2.3,0.9,9.9,2.4,16.8,3.4c-12.8-4.6-22.2-13-26.1-17.8c-1.1-10.4,2.8-29.3,5.1-42.5
	c-7.7,12.5-9.3,47.6-9.3,47.6s1.9,1.9,8.2,6.1h-9.9H10.9"/>
</svg>
