<svg xmlns="http://www.w3.org/2000/svg" fill="none" stroke-width="4" stroke="white" stroke-dasharray="12353"  viewBox="0 0 1136.8 377">
	<path d="M8.5,307.9h124.7c0,0,1.2,10,11.2,10c10,0,126.9-4.8,143.7-7c16.8-2.2,14.4-5.1,13.8-9.5
	c-0.9-6.7-7.3-17.2-12.1-19.3c-4.8-2.1-19.3,1.8-41.9,1.8s-56.5-2.1-65-6.5c-8.5-4.4-11.3-8.2-11.9-10.2c-0.5-2-0.9-21-2.3-35.7
	c-1.4-14.7-6.1-40.7-7.3-43.7s-2.6,5.1-2.6,11.5c0,6.4,3.5,54.8,16.4,65.3c12.9,10.6,16.2,11.5,17.1,10.6c0.9-0.9,0.9-13.7,6.1-22.6
	c5.2-8.9,7-12.3,7-19.8s-5.2-22.8-9.7-30.7c-4.4-7.8-7.6-13.7-7.6-25.6s10.2-18.7,10.2-18.7s-11.9-18.8-21.8-23.7
	c0,5.3-1.7,18.8,2.2,29.3c-6.1-12.5-15.6-29.5-27.1-41.1c-11.5-11.5-14.7-11.6-14.7-13.4s-2.3-4.4-2.3-14.6c0-7.2,3.8-5.2,3.8-7.7
	c0-2.5-4.3-20.2,7.4-20.2c11.7,0,7.8,9.8,15.8,9.8c8,0,9.4-11.9,16.8-16.6S188.4,47,191,42.3c2.6-4.7,6.9-8.5,12.1-9.5
	c5.2-1,3-8.2-3.1-11s-24-10-49.6-4.9S113.6,35,109.3,50c-4.3,15.1-4.4,25.5,2.2,30.7c6.6,5.2,7,9.5,6.6,12.2
	c-0.5,2.7-5.9,3.4-8.1-0.3c-2.3-3.7-5.9-13.4-5.9-13.4s-34.6,11.8-41.3,36.5s2.2,37.2,5.3,42.1c3.1,4.9,9.8,18.4,7.2,24.5
	s-5.3-4.1,2.5-20s23-22.4,30.7-25.8c7.7-3.4,7.7-3.4,7.7-3.4l12-10.4c0,0-14.2-1.5-25.2,5.7c-16.6,11-31.2,42.8-33.5,57.4
	c-2.3,14.6-2.6,86.1,7.4,115c14.3,0,51.1,0,51.1,0s-8-17.4-12.5-37s-7.2-37.8-13.9-50.5s-9-27-7.4-40.9c1.6-13.9,3.5-43.6,28-56.3
	c5.1,2.5,20.9,15.8,30.8,28.3c9.9,12.4,18.3,29.8,18.3,29.8s-3.7-32.3,2.9-43.4s18.2-11.5,26.8-9.6c8.6,2,13.1-2.5,13.1-12.5
	s-2.2-14.5,2.5-15.8c4.7-1.4,9.8-2,7.2-6.5s-8.6-8.2-8.6-19.6s0.8-12.9-2.5-19.2c-3.3-6.3-5.5-21.1-23.1-21.1s-51.1,5.3-65.2,27.2
	s-5.9,24.7-5.9,27.4c0,2.7-1.6,12.3-10.2,18.2c-8.6,5.9-6.2,11-1.6,17.8c4.7,6.8,28.8,22.3,38.2,31.7c9.4,9.4,33.3,42.5,42.8,60.8
	s7,32.5,7,38.3c0,5.9-1.6,17.4,7.6,17.4c9.2,0,19.4-2.9,28.8-2.9c9.4,0,38.2-0.4,38.2-0.4l2.6,14.9l3.6-15.8c0,0,12.2-3,17.1-6.2
	c4.9-3.1,8.9-3.4,16.4-4.8c7.5-1.4,15.8-4.5,17.7-4.5c2,0,3.6,0.9,3.6,2.6c0,1.8-0.4,3.9-3.8,5.6s-13,3.8-15,5.8s-4.8,9.8-7.1,12.1
	c-2.3,2.3-4.5,5.3-2.3,7.4c2.1,2.1,4.5,3.7,9.7,4.3c5.2,0.6,13.1-0.3,14.2-2.8c1.1-2.5,2.7-8.9,4.4-12.6c1.7-3.7,2.5-6,2.5-7.8
	c0-1.9-1.1,1.7-6.9,3.4s-18.8,3.3-23.8,4.6s-36.8,13-41.3,14.2c-4.6,1.3-24.3,5.7-27.8,5.7c-3.5,0-3.1-5.1-4.8-13.6
	c-1.7-8.5-10-38.2-10-50.9s6-15.5,14-15.5c8,0,19.4-0.1,19.4-0.1s4,40,2.7,45s-2.9-5.2-3.4-14c-0.5-8.7,1.8-23.7,5-31s0.4-19-1.2-27
	c-1.6-8,1.2-17.7,11.6-30.9s15.4-17.2,23.2-19c7.8-1.8,27.8-10.6,31-13.8c0,0,3.4,15.1,6.3,23.3s6.3,9.9,6.3,9.9s10.1-8.3,14.7-10.8
	c7-3.8,12.7-2.6,12.7-2.6s-14.7-12.9-22-20.2c-7.3-7.3-6.8-8.3-6.8-8.3l4.9-19.8c0,0-3.2-6.3-4.1-10.8s-1.3-12.4,2.9-27.1
	s11.1-27.1,11.1-27.1s16.3,10.3,40.3,14c24,3.7,24.8,3.7,24.8,3.7s1.6,11.1,3.3,15.8s2.1,6.9,2.1,10.3s-3.3,7.6-4.6,11.5
	c-1.3,3.9-4.2,18.8-5.2,23.9c-1,5.1-2.1,19-11.6,19s-29.1-6.5-34.3-9.3c-5.2-2.7-10.2-8.7-12.8-15.7c-2.6-6.9-2.6-6.9-2.6-6.9
	s-11,1.8-19.8-22.2s1.6-56.5,38.1-56.5s38.6,12.1,45.3,17c6.7,4.8,14,6.5,14,6.5s2.3,10.6-9,10.6c-11.3,0-28.6-2.1-36.9-7.6
	c0,5.2-1.7,15.1-4.8,18.3c-3.1,3.1-9.6,2.5-12.5,5.5c-2.9,2.9-4.2,11.9-4.2,11.9l-8.2-2c0,0-1-8.7-7.3-9.8c-6.3-1-9.5,2.2-10,10.8
	c-0.5,8.6,9.5,18.6,9.5,18.6s14.3,42.8,22.6,54.3c8.3,11.5,12.8,11.2,15.1,29.1s3.7,39.1-0.1,56.9c-3.8,17.7-5.5,38.2-5.5,38.2
	s9.7-38.7,14.2-53.3c4.6-14.6,5.7-20,7.2-24c1.4-4,3.5-8.6,10-5.6c6.5,3,18.3,7.7,22.2,9.4s5.6,4.8,2.6,15.9s-24.8,82.4-24.8,82.4
	l-28.7-18.8l23.1-83l25.4,10.6l-26.2,92.3c0,0,3.5,1.7,3.5,3.5c0,1.8-1.4,2.7-4.8,2.7s-23.1,1-23.1,1s1,4.2-2,4.6s-11-1.4-11-1.4
	s4.2,4.4-0.7,5c-4.8,0.5-13-0.4-17.9-1.8s-8.9-1.4-13.7-1.4c-4.8,0-20.7,0.7-20.7,0.7s2.6-3.4,0.9-12.3c-1.7-8.9-4-11.2-4-11.2
	s30.3-1.2,33.7-1.2s6.5,0.1,7.4,1s14.2,10.6,19.6,12.1c5.3,1.6,27.3-0.8,27.3-0.8L361.7,274l-29.2,2.2l1.6-6.5
	c0,0,167.7-13.4,172-14.6c1.3-4.2,8.2-37.6,8.2-38.9s-3.5-2.3-4.6-1.3c-1,1-8.6,43.8-8.6,43.8l0.7,5.1l3.5-5.1l0.8-3.7
	c0,0,7.4,3.1,13.7,1.6c6.3-1.6,12.7-7,14.4-12.2c1.7-5.2,0.1-11.5-2.1-13.7c-2.2-2.2-4.5-3.6-4.5-3.6l-15.9,7.7c0,0-4.3-2.5-7.4-4
	s-6.8-1.1-8.3,3.7c-1.5,4.8,0.8,8.8,2.3,10.3c1.5,1.5,8.6,5.4,9.9,5.4c1.3,0,6.6,0.4,5.9-2.9c-0.7-3.3-4.5-2.3-4.5-2.3l-4.8-2.3
	c0,0,14.5-13.3,18.5-17.2c4-4-2.3-10.7-7.1-12.7c-4.8-2.1-14.7-6.1-27-18.5c-12.3-12.3-22.4-31.7-29.5-40.2
	c-7-8.5-29.5-29.5-34-31.3c-4.6-1.8-21.5,0.8-30.7,3.1c-9.1,2.3-14.1,12.9-15.5,17.6s-2.5,11.9-2.5,11.9s7.2-15.9,13.4-18.4
	c6.3-2.5,16.6,14.2,16.6,14.2s6.3-26.5,1.2-31.6c8.1,3.4,24.3,9.1,24.3,33.4s-6.4,36.8-6.4,36.8s8.7,17.3,16.4,22.6
	s18.9,14.3,25.8,21.3c6.9,6.9,24.8,17.5,28,18.8S540,271,540,271l-103.2,13.7l-18.9-13.2l77.5-9l56.3,29.6l-77.5,15.4L440,276.6
	c0,0,81.8-12.9,85.6-13.8c3.8-0.9,12.1-5.5,12.1-10.3c0-4.8-5-10.7-2.9-21.4c2.1-10.7,1.3-11.5,8-16.7c6.7-5.2,17.7-14.3,20.6-19.2
	s6.3-7.4,10.3-11.5c4-4,12.1-10.3,16.4-19.1c4.3-8.8,12.9-17.4,19.7-24.2c6.8-6.8,20.1-20.1,22.5-22.5c2.4-2.4,17.9-3.8,22.1-5.9
	c4.2-2.1,7.3-3.1,7.3-3.1s4.2,4.7,6.9,9.6s4.7,18.2,8.3,24.2s6.6,9.7,13,9.7c6.5,0,16.1-3.1,24-11s12.2-12.3,13.5-21.4
	c1.3-9.1,0.5-15.8,0.5-15.8s-7.9,17.9-19.4,23.1c-11.4,5.2-21.3,2.6-25.5-0.4c-4.2-3-12.6-9.3-16.7-15.5c-4.1-6.2-4.8-10.6-4.8-10.6
	s-6.8,0.8-9.8-5.1c-3-5.9-6.5-12.8-6.5-17.2s2.3-5.7,4.2-5.7c2,0,4.8,0.9,4.8,0.9s-2.3-8.1,0-10.4c2.3-2.3,9.1-1.5,14.7-1.5
	c5.6,0,25.9-2.9,33.6-9.5s10.4-11.9,10.4-11.9s6.1,13,11.3,16.3c5.3,3.3,6.1,4.1,6.1,4.1s1.6-13.5-1.9-21.1
	c-3.4-7.6-10.5-12.9-10.5-12.9s-6.4,28.3-69.6,33.5c0-5.6-7-48,44.3-48c20.8,0,29.3,13.3,29.3,13.3s12.6,3,12.6,20.3
	s-3.7,18.9-3.7,18.9l0,4.7c0,0,2.3-2.1,4.4,0c0,0,5.5,6.9,0.7,16.7c-4.8,9.8-6.3,6.8-6.3,6.8s-2,5.1-0.5,8.2
	c1.5,3.1,3.2,7.8,8.7,10.4c5.5,2.5,15,7.1,28,11.7c13,4.6,18.8,5.5,20.7,7.4c2,2,11.6,7.5,15,17.8c3.3,10.3,0.5,17.3,2.6,24.1
	s5.1,18,5.1,30s1.5,18.1,2.4,22.2c1,4.1,3.9,24.1,2.1,30.3c-2.7-1.6-5.2-8.4-11.2-15.3s-11-12.8-24.7-12.8s-21.8,3.5-21.8,3.5
	s-4.9-9.3-1.3-22.7s12.9-36.3,19.1-36.3s0,13.8-3.7,19.8s-17.7,16.1-19.2,28.3s0.8,16.1,0.8,16.1l-40.4,6.1c0,0,8.5,20.8-5.3,26.3
	c-13.8,5.5-21,3.9-24.8,5.5c-3.8,1.6-7.2,3.4-11.3,3.4c-4.2,0-5.5-2.9-5.5-5.5c-2.6,2.6-4.8,4.4-8.5,4.4s-3.9-4.4-5.5-3.9
	c-1.6,0.5-3.5,1.4-4.3,0.5c-0.8-0.8,0.2-3.2-1.5-1.5c-1.7,1.7-4.2,2.4-4.8,0.5c-0.5-2,0.3-11.3,1.7-14.5c1.4-3.1,17.9-16,21-16.8
	s42.5-2.1,42.5-0.8c0,1.3-0.9,3.5-2.2,3.5s-34.6,2-34.6,2s-12.5,10.7-15,11.9c-2.5,1.2-21.3,0.3-21.3,0.3l-1-17.1
	c0,0-6.4-14.3-8.2-20.1c-1.8-5.7-3.8-11.2-3.8-11.2s-4.2,0.4-9.1,8.3c-5,8-26.9,26.5-26.9,26.5s-8-12.7-16.2-12.7s-4.7,4.7-7.8,6
	c-3.1,1.3-7,1.3-7,5.2s-4.5,5.7-4.5,8.4c0,2.6-2.1,9.8,0.7,12.6c2.7,2.7,2.9,5.1,6.1,5.1s5.2-1.3,6.5-1.3c1.3,0,3.3,0.7,5.7,0.7
	s3.8-2.5,3-3.3c-0.8-0.8,3.1,1.8,6,1.8s5.6-1.8,5.6-4.3c0-2.5,1.7,1.5,4,1.5s4.9-0.7,4.9-4.1c0-3.4-0.8-5.3,0.8-5.3
	c1.6,0,33.4-0.8,33.4-0.8l-68.1,27.8l156.9,8.1l-99.1,49.6l-125.7-7.8L570,293l162.3,8.6c0,0-7.3-18.8-10.7-27.4s-3.4-19.6,3.7-23.7
	c7-4.2,14.3-6.8,19.6-5.5c5.2,1.3,11.9,7.7,14.3,12.7s7.5,15.8,12,20.3s6.9,9.9,6.9,9.9s-13.8,11-14.9,19.4
	c-1,8.5-0.1,18.9,1.7,20.7c1.8,1.8,4.2,1.7,4.2-0.6c0-2.3-0.6-15.6,0.7-21.5c1.3-5.9,4-12,6.7-14.6c2.6-2.6,4.5-3.8,6.3-5.6
	s0.7-5.9-1.6-8.2c-2.3-2.3-20.1-12.9-25.7-16.4c-5.6-3.5-7.1-7-7.8-11.2c-0.8-4.2-4.3-12.7-7-17.9s-3-12.5-3-17.3s-1-8.9-3.7-13.6
	s-11-14.6-14-20.7s-7.6-12.1-12.5-12.1s-3.4,1.7-3.4,2.9s7.8,17.6,7.8,22s-1.6,3.5-4.2,3.5s-29.1-8.7-35-9.7s-8.2-1-9,1.7
	c-0.8,2.7,2.9,3.8,4.7,5.6c1.8,1.8,3.8,2,4.8,4.6c1,2.6,2,4.4,4.8,6c2.8,1.6,5.9,1.8,7,4.3c1.2,2.5,2.5,8.2,4.8,10.6
	s14.6,9.7,18.3,13.3c3.7,3.7,9,9.5,12.5,17.2c3.5,7.7,12.5,29.5,14.9,36.7c2.3,7.2,3.8,25.7,6.8,33.1s11.5,22.4,17.6,28.4
	c6.1,6.1,8.3,6.8,10.8,6.8s28.6-7.2,37.3-12.8c8.7-5.6,23.4-20.2,33-27.5c9.6-7.2,27.1-12.8,34.3-16.9s16.7-11.6,16.7-13.7
	s-10.7-1-18.4,5.3c-7.7,6.4-16.4,14.9-18.8,25.6s-1.8,27.8-3.1,34.3c-1.3,6.5-5.3,17.7-5.3,17.7H903c0,0,10.3-34.3,14-45.1
	s9.7-29.3,32-36.5c22.3-7.2,58-15.8,71.3-18.4c13.3-2.6,43.2-12,57.5-5.9c14.3,6.1,8.5,21.5,5.1,28.4c-3.4,6.9-15.9,36.7-15.9,36.7
	s9-33.3,9-45.1s-9-14.2-19.2-14.2c-10.2,0-36.7,7.8-36.7,7.8s3.8-27.8,3.8-43.5s-11.3-44.1-18.2-56.8s-19.2-20-27.2-24.1
	c-8-4.1-18.6-11.5-25-11.5s-39.8,7.6-60.5,16.9s-22.1,11.5-22.1,11.5s-0.8-8.5,0.9-10.2c1.7-1.7,19.8-16.2,27.3-20.2
	c7.6-3.9,17.3-9.4,29.2-10.6s18.8-1.2,18.8-1.2s2.5,5.7,3.4,7.8c0.9,2.1-5.2-1.2-7.2-3.3c-2-2-10.8-15.3-11.9-26.7
	c-5.7,8.5-24.4,13.6-39,9.8s-16.8-13.2-23.1-19.4c-6.3-6.3-11.2-12-15.1-12s-8.2,2.9-8.2,9.1c0,6.3,2.5,6.8-0.1,6.8
	s-4.3,1.7-4.8-3.3c-0.5-5,1.2-15.5-3.5-18.7c-4.7-3.1-6-2.1-6-4.4c0-2.3-0.4-16.7-4.6-18.3c-4.2-1.6-10.8-0.9-13.6-2.2
	s-8.6-6.1-2.7-12s26.5-29.3,66.8-29.3c40.3,0,46.2,16.8,46.2,16.8s10,0.4,14,21.1c3.9,20.7-2.9,41.2-2.9,41.2s3.4-28.4-5.1-41.7
	s-17-18.4-17-18.4s-28.7,16.7-57.3,19c-28.6,2.3-29.6,6.5-31.7,12.7c-2.1,6.1-2.1,20-2.1,22c0,2.1,8.1,7.6,8.1,11.1
	c0,3.5-1,17.9,1.8,22.4s13,18.7,13.7,22.3s-1.2,11.6,4.8,15.7c6,4,17.5-2.7,20.2-2.7s6.6-1.2,9.7,1.8c3.1,3.1-10.8,10.3-18.3,23.7
	c-7.4,13.4-17.7,31.3-23.6,42.1c-5.9,10.8-17.3,24.7-29.9,39.3c-12.5,14.6-13.7,18.3-16.3,22.6s-14.3,20.7-14.3,42.1
	c0,21.4,14.2,25.2,22.4,21.5c8.2-3.7,29.6-20.7,39.7-33.7c10-12.9,24.5-31.8,27.9-33.7s41.7-9.1,53.3-46.3s-13.8-60.9-26.9-66.8
	c14-1.6,53.5-9.9,87.3,0.7c33.8,10.6,28.3,70.8,28.3,75.7c0,4.8-2.5,54.4-2.5,54.4s25.6-9.9,40-9.9s17.7,15.8,13.6,30.7
	c-4.2,14.9-22.4,52.3-22.4,52.3h87.9"/>
</svg>
