<svg xmlns="http://www.w3.org/2000/svg" fill="none" stroke-width="4" stroke="white"  stroke-dashoffset="6416" viewBox="0 0 631 664">
	<path d="M8.5,653.4h115.8c0,0,6.5-16.6,8.6-57.3c2.2-40.7-1.4-55.7,5.3-58.3c6.7-2.6,17.7-0.3,26.9,5.4
	c9.3,5.7,18.7,7.8,27.1,7.8c8.5,0,17.9-10,17.9-27.3c0-17.2-4.4-14.3-5.9-12.9c-4.2,4.2-4.8,11.7-3.1,23.7
	c1.7,12,3.1,17.5,11.1,19.7c8,2.2,34.8,10.8,53,12.1c18.1,1.3,106,0.4,133.7-2.5c27.7-2.9,38.7-14.3,43.8-34
	c5.1-19.7,12.4-58.6,8.7-88.6c-3.7-29.9-7.8-42.8-10.6-61.8c-2.7-19-2.7-34.2-6.3-57.5c-3.5-23.3-15.7-38.5-38-47
	c-22.3-8.4-42.8-15.2-55.8-22.7s-16.4-10-16.4-10s-6,3.4-8.5,17.6s-2.1,39.3-2.1,56s4.5,48.3,6.8,57.3c2.3,9,12.9,42.7,15.5,53
	s9.6,43.4,4.5,53c-5.1,9.6-9,14.7-22.7,14.7s-31.4-5.1-38.2-6s-15.6-1.7-17-0.3c-1.4,1.4-1.6,6-1.6,16.4c0,10.5,4,16.3,7.5,16.3
	c3.5,0,1.7-9.4,1.7-12.9c0-3.5-1.2-12.5,7.4-12.5s25.3,9.4,31,11.6s10.3,3.1,13.8,1.4c8.3-4.1,5-17,14.9-19.4
	c9.9-2.3,21,2.1,31.6,8.6s18.1,13.7,26.3,13.7c8.2,0,1.4-9.5-3.8-13c-5.2-3.5-13.2-6.9-22.6-9.4c-9.4-2.5-16.4-6.3-15.9-7.4
	c0.5-1.1,2.9-5.9,10.3-5.9s27.7-4.6,32.9-3.7c5.2,0.9,15.5,2.6,15.5,8.9s-15,3.7-23.3,0.9c-8.3-2.7-24-6-28.3-12.5
	s2.1-25.6,4.2-32.9c2.1-7.3,7.2-36.5,9.5-49.4c2.3-12.9,7.8-38-2.2-38c-10,0-12.9,16.8-12.9,40.7s7.7,58.4,10,67
	c2.3,8.6,4.6,15.1,1.3,15.1c-3.3,0-2.6-4.2-2.6-9.1c0-5,0.9-25,12.3-48.4c11.3-23.3,24.3-37.8,32.6-53c8.3-15.1,16-36.1,9.8-51.4
	s-22.6-27.8-39.7-34.6c-17.1-6.8-33.3-10.3-49.4-10.3s-20.7,1.6-25.3,0.8c-4.6-0.8-15.2-15.9-38.7-15.9c-15.3,0-22.1,4.2-26.4,4.2
	s-4.4-4.3-3.8-9.6s3.6-13,5.2-19.7c1.6-6.7,4.5-21.1,1.6-24.1s-9.5-5.6-9.5-12.6c0-7,9.9-5.9,12-4.8c2.2,1.1,7.4,8,11.8,8
	c4.4,0,2.7-5.8,10.2-5.8s8.2,4.7,11.5,6.3c3.3,1.6,6.8,1.6,9.1,2.1c2.3,0.5,6.9,1.4,7.4,4.9c0.5,3.5,0.6,3.8,3,4.9
	c2.4,1.1,5.5,3.4,5.5,5.2c0,1.8-2.6,7,0,9.6c2.6,2.6,6.9,2.7,5.9,13.5s-6.4,16.2-7.6,22.7s-3,16-5.2,19.7c-2.2,3.7-5.2,6.9-11.7,6.9
	c-6.5,0-16.2-6.1-22.6-7.6c-6.4-1.4-15.7-5.6-17.9-9.8c-2.2-4.2-3.1-6.7-4-15.1c-1-8.5-4.2-16.6-16.3-21.5c-12.1-5-14.5-8-20-5.6
	s-10,11.5-15.4,15c-21.1,13.8-61.3,21.8-74.6,28.4c-13.3,6.7-31.8,19.2-31.8,53.8S97.3,366,102.2,384s15.8,44.2,31.3,62.6
	c15.5,18.4,46,42.5,51.7,53c5.7,10.6,15.1,43.2-8,43.2c-14.6,0-22.6-5.1-21.9-5.8c0.7-0.7,3.4-6,2.8-6.6c-0.6-0.6-6.7,2-11.1,3.8
	c-4.4,1.8-10.2,4.4-14,4.4s-8.9-3.1-8.9-8.4c0-5.3,7.3-11.9,7.3-11.9s-11.8,5.8-11.8-5.3s19.2-16,19.2-16s-22,8.9-22-0.4
	c0-7,3.3-5.3,3.3-12.8s2.9-17.1,20.6-17.1s38.8,22.2,43.4,26.9c4.6,4.6,19.6,20.5,39.8,20.5s31.6-17.7,40.2-36.7
	c8.6-18.9,18.7-57.1,22-75c3.4-17.9,3.7-33.9,3.7-46.8c0-12.9-0.5-33.1,3.1-44.5c3.7-11.3,12.7-34,0.4-43.2s-20.7-12.1-35.1-12.1
	c-14.3,0-17.7,4.7-17.7,15.1s2.1,16.4-1.6,36.3s-7.2,31-9.5,41c-2.3,9.9-12.7,35.2-21.5,35.2c-8.9,0-15.1-12.4-17.5-18.3
	s-12-46.2-23.3-46.2s16.3,43.2,18.8,47.7s7.6,15.5,7.6,19.8s-9.7,13.4-14.3,23.1c-4.7,9.7-6.7,20.5-1.7,20.5c5,0,9.7-8.2,12.4-21.9
	c2.7-13.7,10.8-15.3,12-14.1c1.2,1.2-0.4,16.3,1.2,30.1s0.1,28.3-3.3,30c-3.4,1.7-4.4-14.6-4.4-23.7c0-9.1,6.1-32.1,8.5-44.1
	s7.6-25.8,14.6-35.7c7-9.9,9.1-15.3,9.1-23.9c0-8.6-0.5-20.6,4.8-30c5.3-9.4,6.1-15.3,0-27.4s-4.8-20.7-7.4-28.8
	c-2.6-8.1-7.6-19.3-10-27c-2.5-7.7-3.7-29.6-12.3-36.8c-2.3,2.3-10,4.8-18.5-3.7c-8.5-8.5-12.4-18.5-12.4-25.4s7.6-10.4,7.6-14.5
	c0-4.1-2.7-9.5-9.7-23.8c-7-14.3-7-29.2-7-37.7s4.9-33.1,24.5-45.5c18.5-11.7,38.8-18.1,60.1-14.7c21.3,3.4,40.8,33.9,46.2,56.4
	s6.5,40.1,8.4,40.1c2,0,7.9-5,11,3.5c3,8.5-2,40.3-3.5,41.9c-1.6,1.6-4.1-0.8-5.5-0.8s-11.3,14.5-13.5,20.3
	c-2.2,5.9-2.2,15.8-2.2,15.8s11.7-7.6,13.7-21.9c2-14.3,0-11.5,3.3-26.4s-7.2-22.1-7.2-25.4s-0.8-31.3-14.3-53s-17.8-24.5-28-24.5
	S224.1,50.6,216.9,53c-7.2,2.3-27.6,3.2-29.2,5.5c-7,10.2,1.4,15.5,1.4,26.4S183,97,183,106s9.8,18.8,5.5,26.6
	c-4.3,7.8-10.6-18.2-11.9-28s-3.5-28.6,0.2-38s4.3-20.9,5.9-25.6s13.7-20.9,29.9-24.8s30.6-3.6,38.5,4.3c7.9,7.9,13.7,13.1,19,15.5
	c5.3,2.3,32.2,12.8,26.4,92.3c-2.3,32.1,5.3,52,5.3,65.2c0,13.1-1.3,16.4,0.6,20c1.9,3.5,11,12.8,13.9,23.1
	c2.9,10.3,2.1,13.3,4.9,21.5c2.8,8.2,10.3,20.5,12.1,28.9s9.3,41.1,9.3,70.1c0,29,6.5,49.8,7.8,62.3s-0.7,37,2.4,44.8
	c3,7.8,6.8,15.5,23.3,19.9c16.4,4.4,42.2,17.2,42.2,49.1s-20.7,31.3-27.6,38.2c-8,8-6.1,25.1-6.8,43.6c-0.8,19.8-1.6,38.5-1.6,38.5
	h240.3"/>
</svg>
