<svg xmlns="http://www.w3.org/2000/svg" fill="none" stroke="white" stroke-dasharray="8113" viewBox="0 0 1297 622.4">
	<path d="M12,612.9h264.6c0,0-51.1-13.8-51.1-57s46.9-51.3,62.8-47.7c15.9,3.5,42.7,15.1,42.7,47s-19.6,45.5-34,47
	c-15.9,1.7-28.5-7.6-13.8-16.3c16-9.6,62.9,6.9,78.3,8.1c15.5,1.3,27.1-8.2,16.2-16.2s-23.8-6.8-23.8-6.8s15.3-6.8,9.7-10.8
	c-5.7-4-17.2-5.1-20.1-1.1s5.4,5.4,27.5-6.2s33.2-12,48.5-13.7c15.3-1.8,35.7-16.1,47.3-26.2c11.6-10.1,31.9-31.1,50-42.8
	s23.7-13.5,28.8-20.3c5.1-6.7,6.3-10.6,11.3-13s5.3,5.1,9.7-7.1c4.4-12.1,14.4-45.5-12.2-61.4s-45.2,1.3-57.7,12.5
	c-12.5,11.2-19.7,29.4-22.1,42.1s3.1,27.2-19.6,32.5c-21.1,4.9-32.6,6.9-48.3,22.7s-24.6,29.1-37.2,38.7
	c-12.6,9.6-22.6,11.4-27,12.3c-4.4,1-8.4,9.6-4.9,11.9c3.5,2.3,19.3,1.5,31.3-7c12-8.5,34.8-32.5,46.4-44.4
	c11.6-11.9,24-19.2,39.2-10.6c15.2,8.7,12.9,33.2,17.5,37.8c4.6,4.6,15.5-5.8,15.4-10.3c-0.1-4.5-6.9-22.1-19.6-34.8
	c-12.7-12.7-25.2-17.9-26.6-16.6c-1.4,1.4-1.2,13.5,14.5,12.5c15.7-1,27.4-10.5,30.4-22.8s5.3-25.6,5.3-25.6s-22.9,21.6-39,7.4
	c-16.1-14.2,7.4-39.8,47.5-36.9s49.4,19.8,55.1,20.2c5.7,0.4,18-7.6,28.8-25.4c8.2-13.6,6.3-27.3,6.3-27.3s-12.9-2.4-25.5-13.7
	c-12.5-11.3-25.5-29.5-37.2-36c-11.7-6.4-41.5-13.2-52-21.3c-10.5-8.1-17.5-24.6-21.1-24.6c-3.6,0-5.5,13.7,9.4,24.6
	c14.9,10.9,34.1,18.9,42.7,23.8s30.5,32.5,35.6,36.8c-6.2-1-28.6-3.2-42,6.1s-38,35.2-38,35.2s6.1-8.6,4.3-16.4
	c-6.2-0.9-27.4,4.1-37,18.9c-12.1-1.7-41.8-17.3-58.1-34.7s-20.8-29.8-19.4-34.2c1.3-4.4,59.4-46.9,89.5-55.4
	c0.6,6.7,8.2,55,54.6,60.7c-7.3,1.9-10.4,3.9-27.7,3.9s-33.9,11.9-42.1,20.1c-8.2,8.2-25.3,24.2-44.7,32.8
	c-19.4,8.6-19.3,8.1-27.6,14.3s-26.7,18.4-42.6,15.3s-22.4-15.6-22.4-15.6s-7.2,6.8-12.2,4c-5-2.8-8.2-9.8-4.2-19.2
	c4-9.4,6.6-6.9,7.2-16.3c0.6-9.4,2.5-31.1,17.3-43.5c14.8-12.4,41.6-27.2,45.2-32c3.6-4.8,1-11.6-3.7-16.3s-3.3-12.4,4.1-13.5
	c7.4-1,18.4,4.3,26,5.3c7.6,1,16.5-4.8,22.9-4c6.4,0.9,13,6,6.4,17.7s-26.8,17.5-26.8,17.5s-3.9-11.1-18.4-14.9
	c-14.5-3.8-18.6,1-16.7,5c1.9,4,13.6,4.9,20,8.1s8.1,9.9,2.5,15.5c-5.5,5.5-22.2,17.6-28.6,22c-6.5,4.4-7.4,7.2-11.4,9.3
	s-16-1.4-22.2,0.4s-13.5,5.4-10.3,8.6c3.1,3.1,13.1-1.3,18.1-1.3s5.9-0.8,6.8,3.9s-0.6,14,5.4,12.7s18.6-8.8,24.9-15.6
	c6.2-6.8,18-11.2,31.1-13.4c13-2.2,30.8-9.9,40.6-20.6c9.8-10.8,16.9-23.7,18.5-23.7s15.5-7.5,20.3-9.8c8.3-3.9,15.7-16.5,19.2-22.6
	c3.5-6.1,17.3-10,22.7-18.4s4.2-14.1,4.2-14.1s12.9,2.8,17.1-4.2s4-14.5-1-28.6c-5.1-14.1-2-29.7-2-35.5c0-5.7-0.8-14.5-0.8-14.5
	s-23.2,13.7-30.8,16.8c-7.6,3.1-21.8,9.2-25.7-18c-3.9-27.2,8.7-28.6,12.5-29.3s25.1-6.6,32.1-10c7-3.4,31.8-18.7,40-20.3
	c8.2-1.6,24.4,2,36.4,1.2s19.4-3.5,19.4-3.5s-10.2,25.1,8.2,42.7c18.3,17.6,50.3,6.4,59.4-7c9.1-13.4,9.5-20.5,14.1-26.3
	c4.6-5.8,13.2-13.1,10.1-22.3c-3.9-3.9-12.1,5.8-12.1,5.8s-6.9-4.5-4.7-17c-8.6,0-13.9,2.2-24.1,3.9c-10.1,1.7-28.7-2.5-35.4-9.2
	s4.6-23.7,19.9-33.1s46.6-18.2,61.7,2.5s0,60.5-6.5,69.6s-27.7,31-50,33.9c-22.3,2.9-26.2-14.1-28.4-35.1s9.1-49.4,21.4-58.5
	c12.2-9.1,35.8-19.9,52.8-9.1c17,10.8,18.4,48.2,10.8,76.4c4.2,2,7.2,4.4,9.7,6.9s9.5,6.7,17.9,5.4c8.3-1.3,23.2-5.4,29-5.4
	s30.3,4,41,1.7c10.7-2.3,35.1-10.3,52.6-16.1s31.7-8.8,47.6-14.4c15.9-5.6,26.9-10.6,31-11.7c4.2-1.2,16.8-6.9,28.2-14
	c11.3-7,21.5-12.4,23.3-12.4c1.8,0-0.5,5.9-3.8,9.1c-3.3,3.3-6.7,6.8-5.9,7.7c0.8,0.8,18-0.7,26.1,0.8s13.5,6.6,14.9,8.3
	c1.4,1.8-24.1,8.5-35.8,11.8c-11.7,3.3-50.7,12-66,21.1s-34.1,21.8-50.2,30.4c-16.1,8.6-38.3,15.4-51,17.1
	c-12.7,1.7-20.9-4.8-23.4-12.1s-0.4-27.8-1.2-28.6c-0.7-0.7-3.7,3-5.6,8.5c-1.9,5.5-0.5,36.7-6.4,49.3s-20,10.5-26.5,8.8
	c-15.1-3.9-25.3,0-29.2,2.6c-3.9,2.6-17,8.9-23.6,26.5c-6.7,17.6-5.5,25.3-18,34.9c-12.5,9.7-19.8,22.4-34.7,33.7
	c-14.9,11.4-37.4,21-53.9,23.7c-16.4,2.7-42.1-0.6-46.4-4.5c4.8-4.8,15-7,28-8.6c13-1.6,44.3-8.1,72.8-28.8
	c28.5-20.7,30.3-25.1,34.1-33.1s1.1-16.2,0-16.2c-1.1,0-9.4,3-17.5,19.2s-8.1,42-10.4,54.7c-2.2,12.7-5.4,36.2-16.6,50.9
	c-11.1,14.7-22,23.5-30.1,23.5c-8,0-26.5-22.6-33.2-29.3c-6.7-6.7-23.7-20.6-39-26.5c-15.3-5.9-26.6-13.3-26.6-20.6s11-12.1,15-14.2
	c4-2.1,19.7-7.3,17.6-33.7c-1.7-21-4-23.3,0-55c3.8-30.5,6.3-39.7,6.3-39.7s-6,1.9-13.6,1.3c-7.6-0.6-16.3,0.9-25.8,3.3
	s-40.2,14.2-47.8,17.5c-9.8,4.3-25.1,13.1-34.7,15.3c-9.6,2.1-36.8-2.7-59.2,3.1s-37.5,24.1-47.4,30.8c-9.9,6.8-18.2,9.6-19.9,6.8
	s2.2-6.7,7-9.8s11.5-10.6,5.2-12s-41.9,11.2-45.7,12.9c-3.7,1.7-9.4,1.4-6.1-2c3.3-3.3,25.8-16.1,39.1-21.7
	c13.3-5.6,38.9-16.5,60.6-26.1c21.7-9.6,59.3-25,75.5-28.8c16.2-3.7,49.9-13.1,63.6-17.6s39.7-15.8,53.2-14.7s20.5,5.4,27.4,7.9
	c6.8,2.5,9.3,0.3,14.1,8.3c4.8,8.1,8.2,30.4,41.1,38c23.5,5.5,42.9-7.3,56.5-5.5c13.6,1.8,19.7,12.4,17.8,23.4s-9.1,24.1-22.4,25.5
	s-19.6-7.3-19.6-7.3s6.7-14.9,22.2-17.9s20.6,0.7,33.1,3.3s28.8,0.9,48.5-7c19.7-7.8,52.2-22.3,67.6-30.7s41.2-25.4,71-34.6
	s69.1-24.8,116.4-24.8s274.9,0,274.9,0"/>
</svg>
