<svg xmlns="http://www.w3.org/2000/svg" fill="none" stroke-width="4" stroke="white" stroke-dashoffset="5448" viewBox="0 0 1146 510.8">
<path d="M8.8,224.1c0,0,11.2,7.8,20.4,14.3c9.3,6.5,24,9.1,39.7,9.1s29.1-0.6,38.3,3.6c9.3,4.2,22.8,11.5,34.4,15.4
	c11.6,3.8,45.7,13.5,50.1,14.7s10,2.6,10,2.6s2.5-15.5,23.9-15.5s13.7,21.5,12.4,24.3c-2.8-2.3-4.5-8-0.9-26.8
	c3.6-18.8,4.8-23.6-0.4-26.2c-5.2-2.6-9-1.3-9-1.3s-0.6,8.3-2.3,16.3c-1.7,8-5.4,21.9-3.5,31.1c1.9,9.2,15.8,22.2,39.2,9
	c23.4-13.2,29-30.8,29-30.8s-4.4-11.4-14.1-17.6S254.7,232,251.3,226s-4.6-16.9-2.2-25.5c2.4-8.6,7.9-18.6,12.7-27.6
	s14.9-26.9,17.6-29.6c2.7-2.7,11.5-3.9,12.6,2.9c1.1,6.8-2.4,12.1-4.1,15.4s-3.7,15.9,4.3,15.9c8,0,10.9-3.7,10.9-12
	s-3.2-28.6-3.2-34.3c0-5.8,1.1-18.1,2.7-27.5c1.7-9.4,2.4-12.6-4.1-15.1s-24.9-3.7-24.9-13.7s4.2-25.8,18.4-25.8
	s21.2,12.7,21.2,25.3s-2.4,24.2-4.3,33c-1.9,8.8-4.9,23.8-14.2,26.5c-9.3,2.7-21.4,5-28.5,2.7s-11.9-3.5-13.1-16.2
	c-1.2-12.7,0.9-19.5,3.1-31.5c2.3-12,7.2-28.4,7.2-36.2s-5.5-13.3-14.2-13.3s-16.1,5-16.1,6.1c0,1.1,15.4,5.1,26.4-7.5
	c11.1-12.6,2.5-27.2-8.7-27.2c-11.3,0-16.3,17.6-15.9,23.7c4.4,0.5,12.1-1.8,15-2.3c5.1-0.8,10.8,2.4,14.3,7.5
	c3.5,5.1,7.7,0.3,8.1-2.4c0.4-2.7,1.2-20.5,14-20.5c12.8,0,14.1,9,14.1,12.6s-4.4,8.2-10.8,8.2c-6.4,0-11.2-4.5-10.1-5.7
	c1.1-1.1,12.5-7.2,26.3,1.3c13.8,8.5,12.3,11,12.3,17.9s-0.2,37-2,51.6c-1.8,14.6-4.8,31.7-18,37.9c-13.2,6.1-29.7,4.5-38-0.3
	c-8.2-4.8-16.3-10.5-15.8-25.8s7.2-30.8,7.2-44.1s-1.7-23.5-11.5-22.6c-9.9,0.9-16.7,10.3-20.5,22.5s-7.1,25.6-6.2,31.9
	c1,6.3,4.7-2.1,12.7,3.4c8,5.5-2.8,17.1-5.1,20.9c-2.3,3.8-7.6,19-10.3,25c-2.6,6.1-4.2,7-6,6.6c-1.8-0.5-4.8-4.4-3.7-12.8
	c1.1-8.4,8.8-33.1,12.8-36.1c4-3,14.9-7,13.8,12.5c-0.9,15.7-4.4,15.4-3.5,16.2c0.8,0.8,11.6,8.1,22.5,10.3
	c10.9,2.2,10.9,2.2,10.9,3.3s-4.9,20.4-8.8,30.5c-3.9,10.1-6.8,16.1-10.9,17.1s-11-1.2-14.6-0.5s-8.2,2.1-9.6,1.4
	c-1.4-0.7-1.6-21.5,0.5-34c2.1-12.5,6.8-22.3,9.6-23.8c2.7-1.5,10.7,1.8,19.7,6.4s16.2,5.5,20.5,6.4c5.1,1,11.3,0.8,12.5,2.1
	c1.2,1.2,0.3,4.8-2.6,9.5s-9,11.3-12.7,20.3c-3.7,9.1-3.2,11-5.7,16.3c-2.4,5.4-7.1,8.8-9.8,8.8c-2.6,0-9.6-9-16.4-9.8
	s-14.7,2.1-15.4,9.4s6,8.8,11.3,14.2c5.4,5.4,10.3,11.3,14,15c3.7,3.7,8,6.4,11.9,11.9c3.4,4.7,6.4,10.9,6.4,17.5
	c0,6.6-2.3,14.8-5.2,20.3c-2.9,5.6-7.9,11.4,6.8,12c14.7,0.6,28.7-2.8,36.6-1.1c8,1.7,31.4,9.8,41.6,12.1c10.2,2.3,24,4.9,28.5,6
	c4.5,1.1,16.1,5,16.1,5s1.6-4.9,6.2-6.2c4.6-1.4,11.1-0.3,16.4-1.4c5.3-1.1,8.6-6.7,14.2-7.5c5.6-0.8,11-0.7,11.9,0.3
	c0.9,0.9,3,7.3,2.3,15.8c-0.5,5.7-2.5,11.3-4.3,11.3c-1.8,0-3.7-6.4-2.5-12.3s7.6-16.7,10-23c2.3-6.3,3.5-15.7,3.5-22.4
	c0-6.7,1.6-32.3,4.4-38.9c2.8-6.6,8.3-9.9,13.5-11.7c5.2-1.8,21.7-8,22.7-9c1-1-8.2-19.4-24.9-19.4c-10.6,0-36.2,26.7-37.2,31.7
	c-1,5.1-0.9,16.3,0.3,28.2c1.2,11.9-0.8,20.9-2,26.3c-1.2,5.5-6.4,24.7,2.6,26.5c9,1.8,11.1-23.1,11.1-27.9s2-28,8.2-36.9
	c6.2-8.9,8.5-11.3,21.9-18c13.4-6.7,27.3-13.7,35.5-20.2c8.2-6.5,18.7-20.9,19.2-32.7c-9.8-3-27.3-8.3-38.6-8.3
	c-11.3,0-17,4.7-18.9,7.8c-2,3.1-4.3,8.7-4.3,14.3c0,5.6,7.3-7.2,7.3-9.7c0-2.5,1-4.8-10.7-16.6c-11.7-11.7-1.6-19.3,0.9-21.9
	c2.6-2.6,17.7-9.4,20.2-14.3c2.4-4.9,2.6-26.8-4.3-40.2S452.6,66,440.2,66.8c-12.4,0.8-11.3,10.9-10.9,14.9c0.5,4,6.1,30.5,4,32.6
	c-2.1,2.1-3.5,1.4-5.7,1.4c-4.2,0-6,0.9-6,6c0,5.1,3.1,10.9,13.6,12.7c10.5,1.9,21.1,0.6,21.1-4.9c0-5.5-10.1-7.5-12.4-8.8
	c-2.3-1.3-9.9-5.3-14.6-25.7s-4-23.9-2.1-28.3c2-4.4,6.2-10.2,6.2-10.2s-6.1-2.6-5.2-12.7s11.8-28.3,26.8-28.3
	c15,0,19.2,19.1,15.6,27.5s-11.3,4.1-12.8,2.6c-1.5-1.5-17.7-16.7-19.5-14.9s3.2,4.8,5.6,7.1c2.3,2.3,13.5,13.3,13.5,17.4
	s-2.6,8.3-4.7,7.5s-2.5-2.3,0.6-6.4c3.1-4,19.6-21.8,36.8-21.8c17.2,0,37.1,15,45.6,41.6c5.9,18.3,4.9,29,8.2,40.1
	c3.3,11.2,12.2,24.5,12.2,37.8s-10.2,23.1-23.1,23.1c-12.9,0-21-6.1-30-17.4c-9-11.3-21.1-49.1-23.9-54.6
	c-2.7-5.5-14.7-24.5-14.7-40.2s10.2-20.3,17.3-20.3c7.1,0,19,9.1,25.8,32.9c6.8,23.7,9.3,34.8,10.7,43.6c1.4,8.7,5.1,25.6,6.9,30
	c1.8,4.4,4.8,11.6,3.7,17.5s-5.3,11.2-8.1,14s-12.3,7-14.9,12s-3.4,14.3-4.7,20.6c-1.3,6.3-3.1,18.8-10.2,25.8
	c-7,7-23.2,15.9-23.2,1.3s25.4-17.1,25.4-17.1s3.7,47.4,6.1,59.7c2.3,12.3,10.8,42.9,12.1,51.3c1.4,8.4,1.4,17,1.4,17
	s10.8,5.7,8.6,15.1c-2.2,9.4-22.1,6.7-30.7,4.9c-8.6-1.8-8.6-1.8-8.6-1.8s10.4-26.2,8-44c-2.3-17.8-10.8-40.3-12.3-55.8
	c-1.6-15.5-3.3-29.5-4-33c-0.7-3.5-0.1-9.4,12.4-10.8c12.5-1.4,15.1,16.3,15.8,18.9c0.7,2.6,5.2,46.4,5.2,61.4s-0.8,18.8-3,21
	c-2.2,2.2-8.1,8.6-8.1,11.5s2.4,1.9,3.4,2.9c1,1,8.5,6.5,11.9,12.3c3.4,5.7,13.5,12.2,17.1,15.8s11.5,12.5,22.3,17.1
	c10.8,4.6,28.4,3.3,34.7,4.6c6.3,1.3,22.5,5.6,41.6,12.8c19.1,7.1,30.6,11.9,40.2,13.4c9.6,1.5,52.7-6.3,73.5-5.3
	c20.7,1,51.7,17.4,61.2,20.5s22.7,5.5,41.9,7.2s44.6,13.1,50.5,17c5.9,3.9,26.4,14.7,58.1,19c31.7,4.3,73.4,4.7,82.8,7.2
	c9.4,2.5,25,9.2,46.8,12.5s55.2,2.5,55.2,2.5"/>
</svg>
