<svg xmlns="http://www.w3.org/2000/svg" fill="none" stroke="white" stroke-dasharray="14354" viewBox="0 0 1165 595.5">
<path d="M9.2,565.4l335.6-3.5c9.6-0.1-4.1-13.5-4.6-11.9c-1.4,4.3-3.4,11.6,13,20.5c16.5,8.9,57,24,54.7,8.9
	s-22.6-34.7-26.1-34.3c-3.5,0.5-11.9,5.1-22.8,2.1s-14.3-4.4-15.8-9.4s3-130.1,0.9-133.8s-9-3.3-5.9-8.7s4.6-1.1,3.1-5.4
	c-1.5-4.3-75.8-80.3-82.3-95.9c-6.5-15.6-6.3-29.9-6.3-29.9s-27.4,12-15.7,23.5c11.7,11.5,55.9,17.2,66.2-7.8
	c10.2-24.9,21.4-58.2,20-100.4c-1.4-42-4.4-62-7-77.9c-2.6-15.8-1.1-23.5-3.5-21.7c-2.3,1.8-19.9,18.8-14.6,23.5
	c5.4,4.7,10.9,5.9,10.9,5.9s-14.2,4.7-13.3,8.8c0.9,4.1,20.7,25.3,21.6,53.1c0.9,27.9-34.2,33.5-29.6,42.4
	c4.6,9,20.3,11.5,11.5,18.5s-57.5,28.3-54.1,16.5c3.4-11.8,24.5-43.5,26.4-68.9c1.8-25.3-2.6-49.4-0.4-47c2.1,2.4-43.9,2.3-54.2,8.1
	c-10.2,5.8-42,45.9-48.3,40.6s-13.2-17-13.2-17s-13.6,9.8-14.8,12.1c-1.2,2.3,6.3,12.8,11.2,12.9c4.9,0,9.3-10.4,3.6-6.4
	c-5.7,4-7,27.9-13,27.9c-6-0.1-5.1-5.9-5.1-5.9s1.4,14-5.3,6.9c-6.7-7.1-9.6-12.3-5.2-22.8c4.4-10.4,63.6-66.6,68.7-70
	c5.1-3.5,64.9-29.8,69.8-26.9c6,1.2,6.1,16.3,4.4,18.9c-3.2,4.6-10.3-18.3,13-21.2c21.4-3,34.2-4.4,31.6-13.9
	c-2.7-9.4-13.6-11.4-12.2-28.8s7.8-15.1,9.6-18c1.8-3-2.4-15,18.4-18.7c20.9-3.8,45.3,10.4,36,14.4c-9.3,3.9-25.6,0-25.6,0.8
	c0,0.9,6.2,7.9-0.8,10c-6.9,2.1-12.2,1-14.9,4.3c-2.7,3.3-3.1,18-3.3,16.3c-0.2-1.8-7.4-10.9-9.1-5.8c-1.7,5,6.8,18.6,3.3,13.8
	c-3.5-4.7-14.4-11.4-4.4-25.3s18.9-23.4,36.5-18c17.7,5.4,20.1,15.5,20.3,22.9c0.2,7.4-7,47.6-18.7,47.9s-28.3-20.6-31.1-16.5
	c-2.7,4.2-4.1,8,1.2,16.3c5.3,8.3,13.6,24.6,17.2,21.4c3.6-3.3,12.7-22.6,13-15.8c0.3,6.8,3.9,27.7,1.9,26.5
	c-1.9-1.2-13.4-6.3-13.4-6.3s4.7,65.2,6.5,88.7s-5.1,41.6-6.6,44.3c-1.6,2.7-7.1,11.4-7.4,9.9c-0.2-1.5-10.8-15.3-8.6-23.7
	c2.1-8.4,8.3-24.6,9.7-53.7c1.4-29,5.6-66-0.1-66s-11.3,11.3-10.2,4.8c1.2-6.5,23.7-26.8,26-25.6c2.2,1.2,5.9,21.4,8.4,35.8
	s2,95.9,1.1,115.8c-0.9,20,1.2,50.1,5.2,38.3s-2.2-86.3,1.5-109.8c3.6-23.4,10.5-41.4,8.1-45.9s-21.8-12.6-14-14.4s5.9,3.6,7.8-1.8
	c2-5.4-12.7-23.2-10.5-15.2s15.1,8.9,23,25.1s18.2,58.7,31.4,55.1c13.2-3.5,36.4-35.2,36.4-35.2s3.9,34.5,9.1,34.6
	c5.3,0,7.4-8.2,7.6-13.6c0.2-5.5,16.3-10.9,20.3-22.7c4-11.8,3.7-26.3-8.7-26.3c-12.3,0-9.1,29.9-6.1,20.9
	c3-9.1-11.4-21.8-13.4-15.4c-2,6.3-4,12.7-2.5,19c1.5,6.4,8.8,22.7,7.4,13.6s-16.4-6.4-16.7-0.1c-0.3,6.4,6.6,32.8,6.6,32.8
	s-45.5,39.7-58.3,35s-24.1-44.6-23.5-38.3c0.6,6.3-6.5,67-19.4,66.8s-30.4-13.1-19.3-12c11.1,1,22.7,13.9,22.4,20.3
	c-0.3,6.4,0.3,48.7-5.7,46.8c-7.8-3.1-28.3-38.3-14.6-28.7c5.7,7.4-24.5,1.2-41.9,5.4c-17.3,4.2-46,85.2-48.3,97s4,22.9,3.5,15.6
	c-0.5-7.3,5-13.5-10.5-12.2c-15.4,1.4-63.5,18.1-67.7,18s-4.6,22.5-0.9,32.7c3.7,10.1,22.4,6.2,14.9,4.1c-7.5-2.1-21-0.7-25.9-2.7
	s5.8-29.8,0-29.9c-5.8-0.2-8.7-9.3-21.4-5.2c-12.7,4.1-36.4,83.9-25.4,80.7s17.9-35.7,39.9-40.3c22.1-4.7,96.3-12.2,107.1-22.9
	c10.8-10.7,55.8-50.6,50.9-56.2c-4.9-5.6-28.4-16.2-30.3-30.8c-1.8-14.6,20.6-36.8,42-35.5c21.5,1.3,37.3,35.5,43.8,45.7
	c6.5,10.3,26.2,40.3,23.3,66.2c-2.9,25.9-4.5,124-3.8,128.7s17.7,22.5-2.7,22.5c-20.3,0,57.7,6.5,62.3,1.9
	c0.4-0.3-64.3-50.3,35.7-39c0,0,35.4,3.5,51.9,1.2s71.1-3.1,55.9-14.9c-15.2-11.8-30.6-15.4-30.6-15.4s-13.9,10.6-21.7,11.3
	c-7.7,0.7-17.6-11.1-18-2c5.1,17.1,13.4-7.1,8-41.6c-1.8-29.1-10.5-78.3-11.3-82.3s-31.8-50.2-30.9-56.8s13.4-24,11.7-12.9
	c-1.7,11.1-32.3,73.8-45.6,75.4c-13.3,1.6-56.8-2.3-57.9-5.6c-0.5-1.6-1.5-6.6-2.3-11.7c-1.3-7.9-9.9-14.1-9.8-15.3
	c0.1-3.3,56.8-4.8,58.5-1.5s1.6,14.7-1.3,10s-7-12-3.4-23s6.7-57.3,7.9-54.7c1.1,2.6,24.3,18.1,32.1,12.4
	c7.8-5.7,17.7-34.3,27.7-80.5c9.9-46,9.6-88.1,6.6-90.7s-5.4-5.2-5.4-5.2s-9.5,18-5.8,21.3s6.1,5.2,6.1,5.2s-12.8,5.7-12.2,7.7
	c0.6,1.9,10.6,18.2,9.2,38.9c-1.4,20.8-28,41.3-26.2,45.2c1.7,3.9,9.8,6,6.4,13.1s-55.3,22.5-51,9.6c4.3-12.9,30-48.2,35.2-68.9
	c5.2-20.6-9.5-11.7-9.4-14.3c0.1-2.6,17.2-8.9,22.6-18.6c5.4-9.6,5.7-16.7,8.9-20.6c3.3-3.9,3.6-11.6,17.3-11.5
	c13.8,0-7.2-15.2-5.2-28.7c2.1-13.5,8.6-11.9,9.3-14.1c0.7-2.2-3.8-14.4,9.4-16.1c13.2-1.6,33.5,2.5,35.2,0.2
	c1.7-2.3,8.3,6.7,1.2,11.3c-7.1,4.5-18.4,2.9-18.4,3.9s4.8,6.4-0.6,6.4c-5.3,0-10.2-3.5-11.6-0.3s-0.6,16.8-3.1,14.5
	c-2.4-2.3-8.2-7.1-9-3.9c-0.7,3.2,2,12.9-0.4,10s-10.4-7.1-0.4-21.2c9.9-14.2,30.7-15.5,36.9-12c6.2,3.5,9.9,13.2,8,23.9
	c-2,10.7-7.6,28.1-15.6,31s-12.3,1.6-15.2,0.9c-2.8-0.7-12.5-19.1-12.2-17.1c0.2,1.9-3.7,31.9,1.4,29.7c5.1-2.2,10.2-4.8,10.2-4.8
	s-18.9,83.6-19.1,88.8s1.4,13.7,2.7,13.1c1.3-0.6,8.9-9.7,9.7-14.9c0.8-5.2,9-87.7,11.4-85.4c2.4,2.3,3.2,11.7,4.8,8.8
	c1.7-2.9,2.4-16.5,2.6-13.9s2.3,18-0.9,36.9c-3.2,18.8-9.3,76-7.1,94.7c2.2,18.8,7.8,20.5,8.1,13c0.3-7.6-6.3-44.7-2.1-65.2
	c4.2-20.5,16.6-46.1,14.1-57.5c-2.4-11.4-8.9-26-7.9-16.9c0.9,9.1-7,114.7-17.1,113.2s-32.5-8.3-25.2-3c7.4,5.3,32.3,16.2,25.9,17.4
	s-20.1-4.3-20.3,1c-0.2,5.2-6.4,35.3-1.1,28.8s10.2-35.2,23.4-15.3c13.3,20,33.5,97.3,33.3,102.7c-0.2,5.3-5.9,94.9-6.1,100.2
	c-0.1,3.8,31.6,8.9,50.7,8.6c39.6-0.7-33.8-13.7-6.9-17.7c17.1-2.5,72.2,2.5,67.1,0.9c-1.7-0.5-2.3,5.7,0.5,11.1
	c2.8,5.4,45.5,9.2,43.5,2.9s-19.9-14.9-25.9-15.1c-6-0.2-13.8,1.7-17.9-6.4c-4.1-8.1,1.7-71.6-3.5-84.9
	c-5.2-13.2-33.5-57.8-42.2-76.6c-8.7-18.7-8.5-37.2-8.5-37.2s28.9,6.9,33.8-1.6s16-40.3,13.6-72.1c-2.4-31.7-9.4-51.8-11.9-50.9
	c-2.5,0.8-17.4,5.5-13.6,7.2c3.7,1.7,10,3.5,9.5,4.7c-0.5,1.3-21,14.4-19.8,17.8c1.1,3.4,27,10.4,30.7,25.5
	c3.8,15.1-1.8,41.4,4.1,43.7c5.9,2.2,15.6,1.1,15.4-5.4s2.8-32.5,3.3-48.4s-1.9-37.3-1.9-37.3s-3.6,21.4-8.6,19.2
	c-5-2.2-15.8-20.6-19.9-23.6s-6.8-5.5-3.3-8.4s7-7.6,9.3-17.7c2.2-10.1,2.4-24.1,4.1-23.1s11.6,2.5,15.6,9.1
	c4,6.7,7.1,16.8,5.1,24.7c-1.9,7.9-5.5,13.6-11.3,11.8c-5.8-1.8-12-14.1-13.5-12.2c-1.5,2-14.9,16.7-24.7,19.1
	c-9.8,2.4-14.2,3.4-11.7,1.7c2.5-1.7,11.9-9.6,13.7-18.7c1.7-9.1,3.2-24.6,9.5-33.7s13.1-7.9,13.1-7.9s11-3,16.7,1.7
	s11.3,22.4,10.7,33.6c-0.6,11.1-4.3,13.8-2,18.3s12.5,10.2,11.7,12c-0.8,1.7-7,4.7-6.1,6.2s9.9,7,9.3,8.8
	c-0.5,1.7-8.4,18.1-10.1,25.3c-1.7,7.2-5.3,46.1-3.8,55.2c1.5,9,3,16.8,5.7,14.6c2.8-2.2-0.8-15.1-1.4-29.1s2.9-31.7,7.5-47.1
	c7.7-19.1,7.7-34.6,2.2-29c-1.8,3.7,0.9,41.5,4.5,47.8c3.5,6.3,25.7,20.3,24.7,21.3s-10.4,9.7-10.3,13.2c0.2,3.5,10.1,11.4,14,13.3
	c3.9,1.8,15.9-7.3,14.5-13.6c-1.3-6.3-6-7.1-8.6-4.4c-2.6,2.7-4.7,8.5-1.7,6.3s6.7-8.2,0.2-9c-6.4-0.8-11-6.9-13.5-5.7
	s-3.8,13-8,10.2c-4.1-2.8-18.1-16.8-20.9-14.3S668,249,667.6,254.5c-0.4,5.5-10-2.4-12.5,5.3c-2.4,7.7,9.1,26.5,0.3,23.5
	c-8.8-2.9-13.3-6.5-27-6.7s-34-6-29.7-15.7c4.2-9.6,15.9-25.2,17.8-38.5c1.9-13.4-4.6-24.6-3.5-29s6.8-8.9,3.3-5.2
	c-3.5,3.7-35.8,14.8-38.1,17.5c-2.3,2.7-15.5,38.1-17.2,38.6s-13.8-3.7-13.8-3.7s-5.4,9.6-6.5,13.8c-1.1,4.2,4.9,11.2,9,12.3
	s4.8-5.9,4.8-5.9s0.2,8.7,3,3.5s4.3-21.2,0.8-24.3c-3.5-3-9.8-3.1-9.7-5.6c0.1-2.5,10.7-32.2,14-36.4c3.3-4.2,35.9-35.7,41.8-38.1
	s9.7-6.9,11.6-0.4c2,6.4,15.2,58.8,6.4,76.1c-8.8,17.3-17.1,17.7-11.9,22.2c5.2,4.6,36.5,4.5,39.7,14.6
	c3.1,10.1,17.5,76.8,18.1,71.3c0.7-5.5,11.6-58.2,7.8-66.9c-3.7-8.6-41.6-8.2-52.2,3.1s1.8,35.6,4,44.7c2.2,9.1,1.1,27.7-3,33.7
	c-4.1,5.9-47.8,25.5-48.8,27.9c-1.1,2.5,5.8,16.3,5.8,16.3s-6.9,1.3-13,10.7c-6.2,9.4-8.6,25-11.8,16.8c-3.1-8.2,1.7-36.7,4.8-40.1
	c3-3.4,11.4-5.2,16.6-0.5s1.5,13.7,7.4,12.3c5.9-1.3,55.1-18.2,60.1-20.6c5-2.4-9.6-42.1-0.9-34.9c8.7,7.3,13.3,18.5,20.8,15.2
	c7.5-3.4,6.5-18.1,6.8-11.5s11,30.7,10.6,45.9c-0.4,15.3-3.4,68.3-3.4,68.3s-6.8,10.5-6.2,8c0-0.1,49.7,3.2,72.9-1.6
	c47.5-9.9-77.9-12.5-13.4-17.1c22.7-1.6,61.8-1.7,61.8-1.7c1.2,0.9,27.7,2.8,21.7-3.7c-6-6.4-28.4-12.6-30.4-12.6
	c-2-0.1-3.6,4.3-11.2,3.5s-11.6-3-12.2-0.4s1.6,16.6,3.9,8.9c2.2-7.7-1.6-20.2-6.4-49.7c-4.9-29.4-4.6-41.1-8.3-53.5
	c-3.7-12.3-19.8-31-19.1-41.6c0.8-10.6,5.5-18.6,2.3-12.6s-25.9,52.2-40.5,59s-12.5,9.7-14.4,7.6c-1.9-2.1-5.3-26.4-1.7-29.9
	c3.6-3.5,5.3-1.8,5.3-1.8s-3.9-1.6,0.3-9.1c4.2-7.5,11-39.2,12.3-48.7s-5-14.7,0.3-11.6c5.4,3.1,31.5,12.6,38.3,0.5
	c3.5-6.2,8-13.1,11.1-23.9c2.9-10,4.5-23.5,3.1-42.8c-3-40.1-10.5-58-13-55.5s-9.6,8.4-7.2,10.4s9.4,2.5,7.8,4.5
	c-1.5,2-15.5,2.9-13.6,9.4c1.8,6.5,20,16.1,23,34.1c3,18.1-10.9,37.6-3.1,43.7c10.2,8,13.9,0.2,17.1,6c3,5.3,10,17.5,10.4,15.5
	c0.6-2.5-12.7-15.8-9.4-46.6c3.2-30.6,4.8-31.1,3.6-43.7c-1.2-12.5-1.4-23-1-21.5c0.5,1.5,14,21.1,13,23.6c-1.1,2.5-6.7,7.5-4.7,9
	s6.5-0.5,4.4,4.6c-2.1,5-3.3,12-6.6,24.1c-3.3,12.1-4,20.1-4,20.1s27.8-6.8,26.5-13.4c-1.4-6.6-1.1-18.2-5.2-16.7s-19.2,6.4-7.2,5.5
	c12.1-0.9,16.5-16.5,20-13.5c3.5,3.1,2.8,11.6,2.3,8.1c-0.4-3.5-0.2-13.1,3.8-10.6c4,2.6,12.9,13.2,6.2,16.2
	c-6.6,3-33.2,17.4-39.7,16.3c-6.5-1.1-1-40.8-3.2-53.3s-5.4-26-6.5-22.6c-1.1,3.5,0,20.5-6.3,14.5s-13.9-23.5-14.8-26
	s-11.6-6.1-14.3-17.5c-2.7-11.4,1.7-21.8,2-14.4s6.9,9.3-5.3,16.5c-12.2,7.2-14.1,17.9-12.9,15.1s-5.4,1.9-4.2-16.7
	c1.2-18.5,7.7-29,16.7-26.7s8.8,9.7,8.4,6.2s11.4-11.4,23-10.7C767,84,774,94.6,771.2,97.2c-2.9,2.6-11.3,2.1-13.8,3.3
	c-2.6,1.2-7.6,15.6-8.3,14.5c-0.7-1.2-1.9-8.1-4.7-5.6c-2.9,2.6,0.2,11.9-3.3,10c-3.4-1.9-15-12.3-3.7-20.7
	c11.4-8.4,28.8-7.3,30.5-1.7c1.7,5.6,2.6,16.8,2.6,26.1c0,9.4-1.5,12.2-8.2,10.5c-6.7-1.6-12.5-2.4-16-2.4s-18.6,8.6-29.4,12.8
	c-10.8,4.2-20,54.5-18.4,62c1.6,7.5,37.7,18.2,39.1,16.8s6.9-13.1,5.1-15s-10.1-6.2-4.2-1.9c6,4.3,26.4-6.8,27.1,3.5
	c0.7,10.4-3.3,21.7-10.3,18.3c-6.9-3.4-25.6-5.9-25.4-12s5-11.7,1.8-14.1c-3.2-2.4-8.8,2.2-9.5-5.8s4.9-34.1-0.9-25.2
	s-2.4,37.9-13.4,51c-11,13-17.3,23.3-16.5,27.1s39,21.3,46.1,18.1s12.7-18.7,12.1-13.1c-0.6,5.7-7.3,11.7,2.5,12.8
	c9.9,1.1,14.8-7.4,14.7-3.1c-0.1,4.3,19.3,65.6,18.2,73.3c-1.1,7.6,1.8,88.1,0.2,96.3c-1.6,8.2-8.9,11.3,9.2,14.8
	c18.2,3.5,361.4,3.8,361.4,3.8"/>
</svg>
