<svg width="19" height="17" viewBox="0 0 19 17" fill="none" xmlns="http://www.w3.org/2000/svg">
<g opacity="0.8">
<path d="M12.8298 0C10.958 0 9.77682 0.922137 9.08626 1.7705C8.3957 0.94058 7.21449 0 5.34272 0C2.14436 0 0 3.00617 0 5.80946C0 9.88531 7.72332 15.3628 8.61377 15.9714C8.75915 16.0636 8.92271 16.119 9.08626 16.119C9.24981 16.119 9.41337 16.0636 9.55875 15.9714C10.431 15.3628 18.1725 9.88531 18.1725 5.80946C18.1543 3.00617 16.01 0 12.8298 0ZM9.06809 14.2009C6.03328 12.0062 1.69004 8.07792 1.69004 5.80946C1.69004 4.09429 2.96212 1.73362 5.32455 1.73362C7.48708 1.73362 8.25032 3.63322 8.28667 3.70699C8.41388 4.03896 8.72281 4.26027 9.06809 4.26027C9.41337 4.26027 9.7223 4.03896 9.86768 3.70699C9.90402 3.63322 10.6673 1.73362 12.8298 1.73362C15.2104 1.73362 16.4643 4.11273 16.4643 5.80946C16.4643 8.07792 12.1211 12.0062 9.06809 14.2009Z" fill="#C3CBD8"/>
</g>
</svg>
