<svg width="67" height="19" viewBox="0 0 67 19" fill="none" xmlns="http://www.w3.org/2000/svg">
<path d="M10.2801 17.0073C9.17102 18.2172 7.67466 18.809 6.05508 18.809C4.40909 18.809 3.07117 18.2346 2.09414 17.2685C0.606589 15.7975 0.509766 14.431 0.509766 10.8451C0.509766 7.25919 0.597786 5.89271 2.09414 4.42178C3.07117 3.45567 4.40909 2.88123 6.05508 2.88123C9.03899 2.88123 11.1515 4.86567 11.6004 7.57252H9.91039C9.46148 5.57067 8.04435 4.37826 6.06388 4.37826C4.97242 4.37826 4.0394 4.75252 3.32643 5.47493C2.32299 6.48456 2.21737 7.63345 2.21737 10.8451C2.21737 14.0568 2.3318 15.2057 3.32643 16.2153C4.0394 16.9377 4.97242 17.312 6.06388 17.312C7.21695 17.312 8.33482 16.8507 9.06539 15.9716C9.70794 15.1796 9.9544 14.3179 9.9544 13.1342V11.9244H6.05508V10.497H11.6444V12.9862C11.6356 14.7879 11.3011 15.8846 10.2801 17.0073Z" fill="white"/>
<path d="M23.1311 18.6784L19.5223 11.7242H15.7198V18.6784H14.0298V3.01178H20.1032C22.8671 3.01178 24.8035 4.66548 24.8035 7.37233C24.8035 9.6614 23.404 11.1584 21.3531 11.5762L25.1116 18.6871H23.1311V18.6784ZM19.9448 4.50881H15.7198V10.2533H19.9448C21.7932 10.2533 23.1047 9.30455 23.1047 7.38974C23.1047 5.47492 21.7932 4.50881 19.9448 4.50881Z" fill="white"/>
<path d="M43.8337 18.6784H42.4518L37.241 3.01178H39.019L43.1384 15.6844L47.2578 3.01178H49.0358L43.8337 18.6784Z" fill="white"/>
<path d="M50.6023 18.6784V3.01178H52.2923V18.6784H50.6023Z" fill="white"/>
<path d="M64.6858 18.6784L63.4183 15.136H56.4999L55.2324 18.6784H53.428L59.2638 3.01178H60.6897L66.4991 18.6784H64.6858ZM59.9943 5.414L57.0104 13.6912H62.9342L59.9943 5.414Z" fill="white"/>
<path d="M32.4174 0.548645L25.8774 18.6785H27.6819L28.9494 15.1361H35.8678L37.1353 18.6785H38.9398L32.4174 0.548645ZM29.4599 13.6825L32.4438 5.40531L35.3837 13.6825H29.4599Z" fill="white"/>
</svg>
