<svg width="19" height="15" viewBox="0 0 19 15" fill="none" xmlns="http://www.w3.org/2000/svg">
<path d="M18.4474 1.71702C17.7849 2.00805 17.0835 2.19952 16.3353 2.28377C17.0913 1.83956 17.6758 1.12729 17.9486 0.284814C17.2394 0.698391 16.4522 0.997086 15.6182 1.15792C14.948 0.453309 13.9971 0.0167542 12.9371 0.0167542C10.9107 0.0167542 9.26614 1.63277 9.26614 3.62406C9.26614 3.90744 9.29732 4.18316 9.35968 4.44356C6.30444 4.29038 3.59993 2.85818 1.79173 0.675414C1.47218 1.21153 1.29291 1.8319 1.29291 2.49056C1.29291 3.73895 1.93982 4.84948 2.92965 5.49282C2.32952 5.4775 1.76055 5.30901 1.26953 5.04095C1.26953 5.05627 1.26953 5.07158 1.26953 5.0869C1.26953 6.83312 2.53216 8.29596 4.21565 8.62529C3.91169 8.70953 3.58434 8.75548 3.2492 8.75548C3.01538 8.75548 2.78156 8.73251 2.55553 8.68655C3.02317 10.1188 4.37933 11.168 5.98489 11.191C4.73006 12.156 3.14788 12.7381 1.42541 12.7381C1.12924 12.7381 0.833073 12.7228 0.55249 12.6845C2.17364 13.7108 4.10654 14.3081 6.17974 14.3081C12.9371 14.3081 16.6314 8.8091 16.6314 4.03764C16.6314 3.87681 16.6236 3.72363 16.6236 3.57045C17.3329 3.07263 17.9486 2.43695 18.4474 1.71702Z" fill="#28BCE4"/>
</svg>
