<svg width="23" height="13" viewBox="0 0 23 13" fill="none" xmlns="http://www.w3.org/2000/svg">
<path d="M19.9446 8.89933C21.6493 10.4468 22.0098 11.1949 22.0623 11.2903C22.7682 12.4344 21.2813 12.5224 21.2813 12.5224L18.4351 12.5664C18.4351 12.5664 17.8193 12.6838 17.0232 12.141C15.9569 11.4296 14.9506 9.57407 14.1695 9.8161C13.381 10.0581 13.4035 11.7303 13.4035 11.7303C13.4035 11.7303 13.411 11.9724 13.2308 12.1557C13.0356 12.3611 12.6525 12.2804 12.6525 12.2804H11.3759C11.3759 12.2804 8.56721 12.5664 6.08898 10.0508C3.39296 7.30781 1.00484 1.91717 1.00484 1.91717C1.00484 1.91717 0.869663 1.59446 1.01986 1.4111C1.19258 1.22042 1.64317 1.22042 1.64317 1.22042L4.69215 1.20575C4.69215 1.20575 4.97753 1.25709 5.1803 1.40377C5.35302 1.52845 5.44313 1.75581 5.44313 1.75581C5.44313 1.75581 5.93127 2.97329 6.59213 4.06609C7.86129 6.21501 8.45456 6.6844 8.88262 6.45704C9.51345 6.11966 9.3257 3.42801 9.3257 3.42801C9.3257 3.42801 9.34072 2.44523 9.00278 2.01251C8.75496 1.67514 8.27433 1.57246 8.06406 1.55046C7.89133 1.52845 8.1692 1.13974 8.53718 0.963718C9.08539 0.699687 10.0542 0.692353 11.1956 0.699688C12.0818 0.707022 12.3446 0.765696 12.6901 0.839038C13.7415 1.08107 13.3885 2.04185 13.3885 4.33745C13.3885 5.07087 13.2533 6.105 13.794 6.4497C14.0268 6.59639 14.5976 6.47171 16.0244 4.10276C16.7003 2.98063 17.2035 1.6678 17.2035 1.6678C17.2035 1.6678 17.3161 1.43311 17.4813 1.33043C17.6541 1.22775 17.8944 1.26442 17.8944 1.26442L21.1011 1.24242C21.1011 1.24242 22.0623 1.13241 22.22 1.55779C22.3852 2.00518 21.8596 3.0393 20.5453 4.74083C18.3975 7.54983 18.1572 7.2858 19.9446 8.89933Z" fill="#28BCE4"/>
</svg>
